<?xml version="1.0" encoding="UTF-8" standalone="no" ?>
<!DOCTYPE svg PUBLIC "-//W3C//DTD SVG 1.1//EN" "http://www.w3.org/Graphics/SVG/1.1/DTD/svg11.dtd">
<svg xmlns="http://www.w3.org/2000/svg" xmlns:xlink="http://www.w3.org/1999/xlink" version="1.1" width="1539.9499907684326" height="486.83910000000003" xml:space="preserve">
<desc>Created with Fabric.js 1.6.0-rc.1</desc>
<defs></defs>
<g style="stroke: none; stroke-width: 1; stroke-dasharray: none; stroke-linecap: butt; stroke-linejoin: miter; stroke-miterlimit: 10; fill: none; fill-rule: nonzero; opacity: 1;" transform="translate(10 10) scale(0.91 0.91)" >
  <path d="M 181.853 381.015 c -3.22 -1.536 -6.444 -3.187 -9.577 -4.915 l 4.027 -7.306 c 2.99 1.649 6.065 3.226 9.134 4.69 L 181.853 381.015 z M 337.903 380.951 l -3.592 -7.529 c 3.059 -1.457 6.124 -3.036 9.103 -4.685 l 4.04 7.304 C 344.324 377.764 341.114 379.418 337.903 380.951 z M 163.014 370.624 c -3.016 -1.905 -6.016 -3.924 -8.922 -6.013 l 4.864 -6.776 c 2.772 1.987 5.635 3.919 8.512 5.734 L 163.014 370.624 z M 356.699 370.568 l -4.465 -7.048 c 2.885 -1.825 5.737 -3.753 8.497 -5.734 l 4.864 6.774 C 362.712 366.635 359.717 368.655 356.699 370.568 z M 145.545 358.083 c -2.778 -2.25 -5.514 -4.613 -8.146 -7.017 l 5.627 -6.157 c 2.509 2.296 5.125 4.547 7.775 6.7 L 145.545 358.083 z M 374.14 358.034 l -5.263 -6.472 c 2.647 -2.156 5.263 -4.408 7.764 -6.702 l 5.629 6.157 C 379.649 353.418 376.913 355.779 374.14 358.034 z M 129.683 343.583 c -2.491 -2.56 -4.936 -5.23 -7.265 -7.928 l 6.318 -5.453 c 2.22 2.575 4.549 5.12 6.925 7.562 L 129.683 343.583 z M 389.989 343.524 l -5.988 -5.809 c 2.378 -2.45 4.713 -4.997 6.932 -7.57 l 6.313 5.45 C 394.922 338.294 392.483 340.961 389.989 343.524 z M 115.642 327.319 c -2.168 -2.831 -4.278 -5.765 -6.275 -8.719 l 6.909 -4.672 c 1.907 2.821 3.924 5.619 5.99 8.325 L 115.642 327.319 z M 404.028 327.25 l -6.628 -5.066 c 2.079 -2.719 4.096 -5.522 5.993 -8.335 l 6.917 4.664 C 408.316 321.464 406.204 324.406 404.028 327.25 z M 103.617 309.522 c -1.818 -3.072 -3.569 -6.234 -5.197 -9.395 l 7.416 -3.822 c 1.551 3.021 3.223 6.036 4.959 8.965 L 103.617 309.522 z M 416.06 309.425 l -7.183 -4.247 c 1.746 -2.947 3.415 -5.972 4.961 -8.986 l 7.419 3.812 C 419.639 303.165 417.885 306.337 416.06 309.425 z M 93.789 290.44 c -1.441 -3.259 -2.803 -6.607 -4.045 -9.938 l 7.818 -2.916 c 1.185 3.177 2.481 6.367 3.858 9.48 L 93.789 290.44 z M 425.903 290.286 l -7.634 -3.364 c 1.377 -3.133 2.675 -6.336 3.858 -9.516 l 7.821 2.9 C 428.709 283.64 427.347 286.999 425.903 290.286 z M 86.289 270.318 c -1.044 -3.418 -1.997 -6.907 -2.836 -10.373 l 8.11 -1.961 c 0.799 3.305 1.71 6.63 2.711 9.889 L 86.289 270.318 z M 433.396 270.098 l -7.98 -2.427 c 0.993 -3.254 1.894 -6.582 2.696 -9.897 l 8.108 1.956 C 435.386 263.199 434.433 266.688 433.396 270.098 z M 81.238 249.426 c -0.63 -3.505 -1.165 -7.086 -1.582 -10.629 l 8.279 -0.988 c 0.402 3.387 0.911 6.794 1.513 10.143 L 81.238 249.426 z M 438.419 249.203 l -8.212 -1.467 c 0.594 -3.341 1.101 -6.753 1.5 -10.14 l 8.284 0.97 C 439.576 242.12 439.046 245.701 438.419 249.203 z M 78.696 228.091 c -0.207 -3.551 -0.32 -7.165 -0.325 -10.739 l 8.343 -0.013 c 0.005 3.418 0.11 6.868 0.315 10.255 L 78.696 228.091 z M 440.933 227.863 l -8.328 -0.489 c 0.2 -3.374 0.297 -6.822 0.297 -10.25 v -0.379 h 8.343 v 0.379 C 441.245 220.71 441.138 224.323 440.933 227.863 z M 87 207.084 l -8.328 -0.479 c 0.202 -3.574 0.517 -7.176 0.927 -10.706 l 8.284 0.965 C 87.497 200.236 87.197 203.674 87 207.084 z M 432.588 206.492 c -0.207 -3.392 -0.517 -6.828 -0.922 -10.209 l 8.282 -0.996 c 0.425 3.543 0.75 7.148 0.965 10.708 L 432.588 206.492 z M 89.376 186.721 l -8.212 -1.459 c 0.62 -3.502 1.359 -7.045 2.189 -10.524 l 8.115 1.94 C 90.674 179.999 89.97 183.375 89.376 186.721 z M 430.14 186.14 c -0.602 -3.331 -1.318 -6.71 -2.122 -10.03 l 8.105 -1.969 c 0.845 3.479 1.592 7.02 2.222 10.514 L 430.14 186.14 z M 94.15 166.781 l -7.982 -2.424 c 1.039 -3.423 2.194 -6.858 3.438 -10.209 l 7.823 2.898 C 96.244 160.243 95.141 163.517 94.15 166.781 z M 425.294 166.223 c -1.004 -3.256 -2.112 -6.525 -3.302 -9.708 l 7.813 -2.921 c 1.249 3.336 2.414 6.764 3.466 10.176 L 425.294 166.223 z M 101.283 147.523 l -7.636 -3.359 c 1.441 -3.274 2.998 -6.548 4.628 -9.725 l 7.419 3.809 C 104.14 141.279 102.655 144.397 101.283 147.523 z M 418.124 147.039 c -1.37 -3.092 -2.86 -6.2 -4.429 -9.234 l 7.414 -3.825 c 1.644 3.18 3.208 6.438 4.641 9.679 L 418.124 147.039 z M 110.65 129.26 l -7.183 -4.242 c 1.812 -3.072 3.745 -6.134 5.745 -9.098 l 6.915 4.657 C 114.223 123.405 112.38 126.328 110.65 129.26 z M 408.721 128.847 c -1.736 -2.926 -3.584 -5.834 -5.491 -8.653 l 6.907 -4.677 c 1.997 2.949 3.935 6.001 5.755 9.07 L 408.721 128.847 z M 122.108 112.241 l -6.633 -5.061 c 2.171 -2.842 4.447 -5.652 6.774 -8.356 l 6.321 5.445 C 126.353 106.847 124.179 109.527 122.108 112.241 z M 397.236 111.88 c -2.071 -2.698 -4.25 -5.373 -6.482 -7.946 l 6.31 -5.458 c 2.337 2.701 4.621 5.499 6.789 8.33 L 397.236 111.88 z M 135.492 96.694 l -5.988 -5.806 c 2.488 -2.573 5.082 -5.094 7.706 -7.498 l 5.635 6.149 C 140.343 91.832 137.873 94.241 135.492 96.694 z M 383.82 96.376 c -2.378 -2.437 -4.854 -4.838 -7.373 -7.137 l 5.622 -6.162 c 2.639 2.409 5.24 4.925 7.724 7.48 L 383.82 96.376 z M 150.604 82.831 l -5.271 -6.467 c 2.765 -2.25 5.635 -4.449 8.53 -6.536 l 4.877 6.766 C 155.98 78.589 153.238 80.686 150.604 82.831 z M 368.667 82.547 c -2.637 -2.132 -5.384 -4.227 -8.161 -6.218 l 4.854 -6.781 c 2.918 2.086 5.798 4.283 8.561 6.523 L 368.667 82.547 z M 167.228 70.853 l -4.462 -7.048 c 3.008 -1.907 6.118 -3.753 9.231 -5.478 l 4.045 7.296 C 173.07 67.269 170.106 69.03 167.228 70.853 z M 351.983 70.6 c -2.867 -1.81 -5.839 -3.566 -8.837 -5.215 l 4.019 -7.306 c 3.146 1.731 6.259 3.569 9.272 5.468 L 351.983 70.6 z M 185.143 60.928 l -3.599 -7.524 c 3.21 -1.539 6.51 -2.998 9.812 -4.344 l 3.149 7.724 C 191.359 58.066 188.207 59.464 185.143 60.928 z M 334.007 60.705 c -3.082 -1.467 -6.249 -2.857 -9.403 -4.129 l 3.128 -7.734 c 3.308 1.336 6.623 2.793 9.856 4.329 L 334.007 60.705 z M 204.113 53.197 l -2.68 -7.9 c 3.377 -1.147 6.835 -2.207 10.278 -3.151 l 2.207 8.046 C 210.633 51.09 207.333 52.104 204.113 53.197 z M 314.973 53.012 c -3.228 -1.085 -6.528 -2.081 -9.818 -2.975 l 2.179 -8.051 c 3.453 0.934 6.915 1.981 10.294 3.118 L 314.973 53.012 z M 223.884 47.775 l -1.723 -8.161 c 3.494 -0.737 7.055 -1.38 10.578 -1.907 l 1.234 8.251 C 230.611 46.459 227.214 47.071 223.884 47.775 z M 295.187 47.657 c -3.331 -0.694 -6.728 -1.293 -10.099 -1.784 l 1.206 -8.256 c 3.535 0.517 7.101 1.147 10.588 1.871 L 295.187 47.657 z M 244.156 44.739 l -0.748 -8.31 c 3.551 -0.317 7.16 -0.532 10.729 -0.643 l 0.259 8.34 C 250.986 44.227 247.54 44.434 244.156 44.739 z M 274.897 44.69 c -3.384 -0.294 -6.83 -0.489 -10.24 -0.586 l 0.228 -8.335 c 3.574 0.097 7.183 0.3 10.726 0.607 L 274.897 44.69 z" style="stroke: none; stroke-width: 1; stroke-dasharray: none; stroke-linecap: butt; stroke-linejoin: miter; stroke-miterlimit: 10; fill: #242D3C; fill-rule: nonzero; opacity: 1;" transform=" matrix(1 0 0 1 0 0) " stroke-linecap="round" />
  <path d="M 259.821 76.132 c -77.868 0.02 -140.971 63.127 -140.971 140.992 c 0 41.257 17.738 78.356 45.962 104.128 c 1.336 1.165 2.688 2.319 4.032 3.5 c 22.042 20.091 35.889 48.978 35.889 81.142 v 18.335 h 55.091 h 55.073 v -18.335 c 0 -32.164 13.839 -61.053 35.884 -81.142 c 1.352 -1.18 2.698 -2.335 4.04 -3.5 c 28.214 -25.769 45.962 -62.871 45.962 -104.128 C 400.78 139.259 337.67 76.152 259.821 76.132 z" style="stroke: none; stroke-width: 1; stroke-dasharray: none; stroke-linecap: butt; stroke-linejoin: miter; stroke-miterlimit: 10; fill: #E6E5E5; fill-rule: nonzero; opacity: 1;" transform=" matrix(1 0 0 1 0 0) " stroke-linecap="round" />
  <path d="M 375.551 217.124 c 0 63.946 -51.804 115.745 -115.738 115.745 c -63.941 0 -115.75 -51.796 -115.75 -115.745 c 0 -63.895 51.809 -115.738 115.75 -115.738 C 323.747 101.386 375.551 153.229 375.551 217.124 z" style="stroke: none; stroke-width: 1; stroke-dasharray: none; stroke-linecap: butt; stroke-linejoin: miter; stroke-miterlimit: 10; fill: #FFFFFF; fill-rule: nonzero; opacity: 1;" transform=" matrix(1 0 0 1 0 0) " stroke-linecap="round" />
  <path d="M 350.296 217.129 c 0 49.964 -40.509 90.46 -90.511 90.46 c -49.971 0 -90.46 -40.497 -90.46 -90.46 c 0 -49.994 40.489 -90.486 90.46 -90.486 C 309.787 126.646 350.296 167.135 350.296 217.129 z" style="stroke: none; stroke-width: 1; stroke-dasharray: none; stroke-linecap: butt; stroke-linejoin: miter; stroke-miterlimit: 10; fill: #242D3C; fill-rule: nonzero; opacity: 1;" transform=" matrix(1 0 0 1 0 0) " stroke-linecap="round" />
  <path d="M 238.629 292.754 c 0.356 0.072 1.334 -0.261 1.626 -0.333 c -0.673 -0.54 -2.143 -0.596 -2.988 -1.121 c 0.072 0.031 -2.721 -1.664 -2.132 -0.266 c 0.161 0.33 0.673 0.028 0.932 0.21 c -0.351 0.484 -0.492 0.333 -0.125 0.576 c 0 -0.018 -3.092 -1.702 0.013 -1.807 c -2.135 -1.933 0.148 -1.326 -0.535 -2.552 c -0.471 -0.832 1.823 -1.633 0.576 -2.353 c -0.566 -0.351 -1.221 -0.284 -1.833 -0.694 c -0.847 -0.625 -0.049 -1.723 0.758 -1.597 c 0.072 0 0.499 -1.956 0.643 -2.273 c -0.233 -0.084 -1.823 -2.079 -1.446 -2.496 c 0.474 -0.484 2.555 1.283 3.062 -0.031 c 0.205 -0.463 -0.709 -1.748 -0.643 -2.276 c 0.942 -0.095 7.104 0.136 6.07 -2.698 c -0.364 -0.973 -2.957 -2.45 -2.696 -3.256 c 0.896 0.141 2.401 1.444 3.361 0.922 c 0.794 -0.41 1.428 0.448 2.281 -0.466 c 0.118 -0.177 1.516 -1.636 1.103 -1.92 c -0.417 -0.003 -0.643 0.228 -0.684 0.724 c -0.484 -0.668 0.351 -1.134 0.796 -1.613 c 0.092 0.154 0.22 0.292 0.32 0.412 c 0.509 -0.758 3.361 -4.477 3.438 -4.577 c 1.487 -1.684 0.282 -3.96 1.741 -5.33 c 1.306 -1.236 2.757 -2.061 4.403 -2.719 c 0.504 -0.195 2.299 -1.149 2.68 -1.05 c 3.052 0.942 2.67 -2.685 4.616 -4.316 c 1.961 -1.633 0.497 -10.025 2.097 -10.642 c 0.87 -0.338 3.446 -3.528 4.782 -4.966 c 1.288 -1.393 1.475 -3.182 0.952 -4.959 c -0.778 -2.714 -1.523 -1.172 -3.487 -2.327 c -1.574 -0.947 -2.772 -2.819 -4.718 -3.087 c -1.132 -0.156 -2.34 0.177 -3.456 -0.146 c -0.481 -0.148 -1.789 -0.94 -2.273 -0.271 c 0.072 -0.113 -1.055 0.417 -0.978 0.443 c -0.115 -0.067 -0.026 -1.48 -0.381 -1.836 c -0.584 -0.55 -2.611 -1.124 -3.356 -1.3 c -1.677 -0.435 -2.092 1.559 -2.514 -0.827 c -1.411 -0.364 -2.78 -1.987 -2.545 -2.399 c 0.131 -0.172 -2.161 -5.012 -2.483 -4.557 c -0.02 -1.628 -5.051 -3.643 -6.333 -2.867 c -1.157 0.829 -3.256 -0.758 -3.965 -1.505 c -0.799 -0.876 -0.786 -1.784 -2.109 -2.337 c -0.586 -0.256 -1.554 -0.123 -1.336 -1.111 c 0.223 -1.037 -2.481 -1.247 -2.734 -2.25 c 0.384 0.064 0.709 -0.115 1.073 -0.21 c -1.06 0.366 -2.348 -0.41 -3.379 0.44 c -1.508 1.262 -2.404 -0.594 -4.055 -0.264 c -2.109 0.402 -0.694 -0.366 -2.02 -1.172 c 0.545 0.33 -2.455 -1.372 -1.746 -1.313 c -0.63 -0.067 0.087 1.042 -0.604 1.283 c -1.101 0.402 -2.033 0.648 -1.334 1.969 c 1.206 2.401 -2.506 1.262 -0.76 -0.364 c 0.31 -0.289 0.392 -3.407 0.742 -3.313 c -0.433 -0.138 -3.82 2.068 -4.221 2.529 c -1.075 -1.738 -2.934 4.324 -3.551 4.37 c -0.294 -1.49 -1.72 -2.099 -2.941 -2.532 c -1.068 -0.422 -2.117 2.109 -3.494 0.727 c -2.458 -2.496 -1.375 -6.472 -0.12 -9.321 c 0.52 -1.29 -4.534 -1.687 -5.143 -1.157 c -1.234 1.004 0.182 -2.084 0.179 -1.974 c 0.146 -1.26 0.415 -2.074 0.973 -2.061 c 0.323 -0.724 2.196 -4.091 2.004 -4.506 c -0.748 -1.759 -3.93 1.385 -4.224 2.158 c -0.338 0.776 -0.945 1.19 -1.229 1.884 c -0.317 0.699 -0.901 -0.164 -1.398 0.123 c -1.38 0.786 -3.333 0.381 -3.041 -1.613 c 0.317 -2.404 -0.594 -7.148 2.089 -8.791 c 0.827 -0.509 0.957 -2.885 1.907 -3.75 c 0.115 -0.09 2.844 -1.669 2.573 -1.984 c 0.387 0.428 2.537 -0.428 2.808 0.131 c 0.202 0.438 1.48 0.932 1.923 0.673 c -0.018 0.054 0.212 -1.05 0.212 -1.065 c -0.033 -0.01 -0.878 -0.131 -0.832 -0.399 c 0.097 -0.384 2.637 -0.115 2.729 -0.108 c 1.203 0.082 2.107 1.085 2.995 0.481 c 1.398 -0.947 0.54 5.279 1.103 5.839 c 0.3 0.34 0.092 1.08 0.678 1.019 c 0.783 -0.072 1.047 -8.051 3.103 -9.728 c 1.487 -1.213 3.144 -2.304 4.803 -3.2 c 0.527 -0.271 1.9 -0.94 2.186 -1.454 c -0.054 -0.256 -0.315 -0.553 -0.591 -0.294 c -0.074 -0.484 0.73 -0.187 0.883 -0.694 c 0.159 -0.515 -0.415 -0.701 -0.353 -0.87 c -0.028 0.059 0.509 -1.055 0.323 -0.901 c 0.031 0.026 0.031 0.084 0.038 0.11 c 0.827 0.138 -0.172 -0.763 -0.212 -0.901 c 1.073 0.561 0.627 -1.188 1.677 -1.288 c -0.75 0.317 -0.614 1.17 -0.494 1.702 c 0.218 1.132 1.231 -1.58 1.098 -1.48 c 1.014 -0.425 2.601 -1.277 3.681 -2.035 c -0.253 -0.102 -0.512 0.084 -0.822 -0.118 c 1.114 -0.41 2.365 -0.276 3.42 -0.832 c -0.049 -1.121 0.622 -2.294 1.902 -2.514 c 1.92 -0.3 4.201 -1.482 6.116 -2.153 c -0.271 0.681 0.166 0.154 0.699 0.399 c -0.63 -1.628 -4.065 3.041 -2.427 2.092 c 1.377 -0.788 6.011 -1.523 6.656 -2.857 c -0.02 -0.09 -0.33 -0.96 -0.32 -0.96 c -1.134 0 -1.231 1.418 -2.644 1.398 c -2.565 -0.031 -1.014 -1.605 -1.551 -2.312 c -0.443 0.108 -0.832 -0.015 -1.132 -0.366 c 0.253 -0.061 3.41 -0.781 1.728 -1.16 c -2.698 -0.586 -4.5 2.44 -6.725 2.365 c 1.661 -1.021 3.927 -3.177 5.937 -3.456 c 2.156 -0.289 5.151 0.758 7.037 -0.579 c 1.674 -1.162 2.849 -0.315 3.786 -2.214 c 0.299 -0.512 -1.226 -1.155 -1.628 -1.254 c 0.197 -0.187 0.504 0 0.648 -0.312 c -2.55 -1.126 -3.069 -2.255 -3.379 -5.187 c -1.288 0.934 -5.622 2.949 -3.305 -0.325 c -0.835 -0.361 -3.466 -2.55 -4.467 -1.034 c -0.474 0.676 -1.201 1.825 -1.979 2.184 c -1.718 0.771 -0.184 0.627 -0.773 1.777 c -0.978 1.9 -3.3 1.638 -4.431 3.29 c -0.699 1.042 -0.906 1.792 -1.999 2.276 c -0.963 0.407 -1.321 -0.709 -0.85 -1.608 c 0.34 0.374 0.645 0.443 0.906 0.164 c 0.09 -0.415 -0.486 -0.218 -0.668 -0.374 c 0.317 -0.586 0.74 -1.121 1.213 -1.626 c -0.156 -0.077 -2.593 -0.463 -2.501 -1.101 c 0.177 -1.347 -1.516 -0.596 -1.792 -1.009 c 1.288 -1.631 1.288 -2.401 3.837 -3.681 c 0.865 -0.43 5.757 -2.936 6.669 -2.307 c -0.12 0.573 -0.732 0.451 -1.047 0.735 c 0.696 0.192 2.747 0.407 3.436 -0.082 c -0.148 -0.125 -0.963 -1.485 -0.548 -1.82 c -0.061 0.082 1.398 0.049 1.516 -0.013 c 0.799 -0.179 1.641 -0.269 2.089 -1.075 c 0.389 -0.701 2.972 -1.613 3.599 -1.265 c 3.359 1.912 -4.598 3.937 -4.669 3.732 c 0.159 0.553 2.294 -0.397 2.844 1.078 c 0.146 0.358 2.563 1.144 2.808 0.809 c 0.148 -0.174 -0.694 -1.065 -0.724 -1.28 c 2.568 1.242 2.401 0.591 1.987 -1.129 c -0.404 -1.636 1.51 0.118 1.608 0.166 c 0.43 0.223 2.14 -0.773 2.412 -1.126 c -0.607 -0.486 -1.69 -0.474 -2.22 -1.06 c -0.538 -0.507 1.321 -0.627 0.668 -1.157 c -0.781 -0.64 -2.007 -0.481 -1.574 -1.718 c -0.456 -0.125 -0.881 -0.069 -1.265 0.159 c 0.113 0.233 0.374 0.054 0.451 0.172 c -0.402 0.266 -0.888 0.312 -1.359 0.3 c 0.138 -0.218 0.586 -0.218 0.589 -0.645 c -1.326 -0.154 -2.028 0.645 -3.177 0.998 c 0.325 -0.476 0.899 -0.632 1.285 -0.98 c -1.265 0.156 -2.468 0.627 -3.461 1.452 c 0.151 0.146 0.284 0.276 0.379 0.471 c -0.957 0.852 -2.253 1.114 -3.384 1.641 c 0.195 -0.763 1.016 -0.596 1.293 -1.16 c -0.417 0.01 -0.827 0.123 -1.196 0.276 c 0.481 -0.056 1.907 -1.477 2.227 -1.848 c -2.045 -0.233 -2.921 2.417 -4.882 2.048 c 0.422 -0.468 1.247 -0.22 1.521 -0.957 c -0.719 0.082 -3.441 1.933 -3.881 0.957 c -0.033 -0.054 4.982 -2.048 5.504 -2.762 c -0.34 -0.049 -0.717 0.31 -1.032 -0.095 c 0.246 -0.274 0.64 -0.297 0.945 -0.596 c -1.649 -0.01 -6.528 1.964 -6.17 3.126 c -0.627 0.509 -1.318 0.658 -2.084 0.323 c 0.31 -0.474 1.37 -0.481 0.507 -1.157 c -1.582 0.566 -3.108 1.216 -4.636 1.887 c -3.53 1.572 -6.999 3.41 -10.268 5.437 c -5.409 3.343 -9.879 7.293 -14.344 11.786 c -2.381 2.414 -11.418 12.956 -11.389 15.16 c 0.031 1.623 -0.927 3.054 -1.546 4.534 c -0.474 1.193 -0.558 2.854 -1.144 3.971 c -1.298 2.337 -0.704 5.046 -1.298 7.747 c 0.75 -0.576 2.278 -12.892 3.615 -12.436 c 0.253 0.097 -0.824 5.13 -1.119 5.752 c -1.108 2.583 0.356 5.74 -0.374 8.443 c -0.074 0.266 -0.448 1.628 -0.456 1.907 c -1.234 0.957 0.333 2.371 0.323 3.423 c 0 0.63 3.177 3.41 3.781 3.768 c 1.324 0.809 1.605 -0.614 2.813 -0.358 c 1.093 0.236 1.411 2.209 1.994 3.044 c 0.776 1.175 3.743 1.05 4.25 1.61 c 0.335 0.41 0.056 2.68 1.418 2.988 c -0.01 -0.156 -0.054 -0.965 0.148 -1.068 c 0.412 -0.248 1.272 1.249 0.993 1.544 c -0.43 0.074 -0.835 -0.051 -1.137 -0.476 c 0 0.2 -0.23 3.172 0.643 2.593 c 0.01 -0.179 0.064 -0.364 0.082 -0.535 c 1.129 0.476 1.052 2.14 1.846 2.371 c 1.121 0.307 1.938 1.702 2.767 2.102 c 0.745 0.366 0.55 -2.614 1.953 -2.77 c 1.16 -0.09 1.8 2.89 2.186 3.602 c 0.604 1.042 -0.801 3.564 -0.028 4.37 c 0.801 0.832 -1.951 2.824 -2.107 3.658 c -0.079 0.653 -1.472 1.244 -1.421 1.498 c 0.105 0.699 -0.317 1.641 -0.553 2.309 c -0.701 1.841 -0.356 2.012 0.837 2.87 c 0.036 0.02 -2.22 4.539 -0.916 5.691 c 2.045 1.69 4.78 5.857 5.432 8.481 c 1.339 3.617 3.397 5.832 6.845 7.611 c 2.785 1.472 4.764 3.986 4.764 7.332 c 0.105 1.987 -0.179 4.472 0.648 6.328 c 0.586 1.308 -0.52 3.433 0.32 4.613 c 0.54 0.714 -0.172 1.121 0.146 1.81 c 0.33 0.732 1.093 1.94 1.07 2.808 c -0.015 1.411 0 3.09 0.084 4.493 c 0.044 0.474 -0.41 1.306 -0.159 1.595 c 0.325 0.389 2.232 5.089 2.232 6.474 c -0.02 0.323 1.454 -0.105 0.12 -1.431 c 1.582 -0.888 1.277 2.826 1.385 2.854 c -1.428 -0.486 -0.502 -0.1 -0.404 1.731 c 0.064 1.073 -0.274 0.568 0.602 0.768 c 1.398 0.305 0 1.236 0.532 1.997 c 1.044 1.518 2.66 2.906 3.776 4.078 C 233.407 292.616 236.486 292.319 238.629 292.754 C 238.926 292.81 238.23 292.682 238.629 292.754 z M 244.509 145.288 c -0.499 0.443 -1.021 0.527 -1.592 0.691 C 243.304 145.367 243.926 145.464 244.509 145.288 z M 239.812 144.876 c 0.379 -0.051 0.648 0.049 0.863 0.317 c 0.008 0.128 -1.935 0.22 -2.222 0.714 C 238.698 145.05 239.392 145.213 239.812 144.876 C 240.004 145.116 239.392 145.213 239.812 144.876 z M 235.076 148.221 C 235.493 148.326 234.484 148.129 235.076 148.221 C 235.091 148.221 234.961 148.209 235.076 148.221 z M 232.475 143.27 c 0.179 -0.197 0.312 -0.172 0.407 0.084 C 232.695 143.578 232.549 143.534 232.475 143.27 C 232.485 143.153 232.447 143.375 232.475 143.27 z M 229.879 150.996 C 229.155 150.948 230.66 151.037 229.879 150.996 C 229.787 150.996 230.002 151.017 229.879 150.996 z M 230.66 148.001 c -2.529 2.342 -0.556 0.028 -1.313 0.748 c 0.031 0.054 0 0.1 -0.033 0.1 C 229.121 148.613 230.616 148.019 230.66 148.001 C 230.324 148.311 230.227 148.073 230.66 148.001 z M 229.728 145.216 c -0.466 0.527 -0.466 0.527 -1.088 0.415 C 228.978 145.4 229.411 145.477 229.728 145.216 z M 240.982 136.323 c -0.177 0.023 -0.325 0.023 -0.604 0.023 C 241.194 135.662 241.056 136.323 240.982 136.323 C 240.805 136.346 241.087 136.323 240.982 136.323 z M 242.792 135.127 c -0.287 0.31 -0.686 0.118 -1.011 0.274 C 242.139 134.7 242.211 134.687 242.792 135.127 z M 232.585 135.946 c 0.22 -0.182 0.479 -0.284 0.755 -0.261 C 233.576 136.036 231.809 136.243 232.585 135.946 C 232.695 135.764 232.5 135.992 232.585 135.946 z M 232.142 135.437 c 0.284 0.133 0.261 0.256 -0.082 0.407 C 231.814 135.693 231.855 135.57 232.142 135.437 C 232.255 135.437 231.986 135.45 232.142 135.437 z M 218.956 157.949 c 0.02 -0.013 -3.958 1.582 -3.656 0.599 c -0.102 0.32 1.354 -1.129 1.06 -0.996 c 0.312 -0.143 2.982 -0.297 3.756 -0.282 C 219.703 157.66 219.319 157.804 218.956 157.949 C 218.067 158.277 219.319 157.804 218.956 157.949 z M 222.117 155.978 c 3.287 0.338 -1.943 1.329 -2.504 0.73 C 220.343 156.068 221.219 155.889 222.117 155.978 C 222.376 156.001 221.219 155.889 222.117 155.978 z M 221.587 135.601 c 0.865 -0.553 1.812 -0.96 2.947 -1.224 c -0.829 0.684 -1.958 0.986 -2.975 1.267 L 221.587 135.601 z M 221.772 153.321 c -0.154 0.138 -0.302 0.131 -0.438 -0.01 C 221.533 153.244 221.723 153.172 221.772 153.321 C 221.828 153.449 221.723 153.172 221.772 153.321 z M 220.806 155.287 C 220.727 155.287 220.466 155.21 220.806 155.287 C 220.819 155.287 220.689 155.256 220.806 155.287 z M 219.831 153.62 c 1.185 0.535 0.497 2.383 -0.522 0.947 c -0.038 0.863 -1.523 2.312 -2.317 2.488 c 0.297 -0.348 0.41 -0.712 0.297 -1.126 c -0.251 -0.197 -0.74 0.387 -1.014 0.374 c 0.118 0.509 2.15 -3.479 0.43 -2.337 c -0.617 0.481 -4.71 4.833 -4.946 4.6 c -0.381 -0.384 1.81 -3.589 1.979 -3.704 C 215.126 153.702 218.067 152.776 219.831 153.62 z M 217.56 138.399 c 0.154 -0.108 1.48 -0.911 1.644 -0.724 c 0.425 0.517 -2.125 1.17 -2.24 1.188 C 217.115 138.534 217.366 138.493 217.56 138.399 C 218.021 138.12 217.366 138.493 217.56 138.399 z M 217.827 149.069 c -0.005 0.067 -0.535 1.055 -0.835 0.655 C 216.728 149.46 217.74 148.613 217.827 149.069 C 217.786 149.322 217.804 148.946 217.827 149.069 z M 214.959 140.815 c 0.141 0 2.268 -1.334 2.33 -0.773 C 217.315 140.191 214.706 140.856 214.959 140.815 z M 214.373 143.022 c -0.131 0.233 -0.253 0.353 -0.556 0.353 C 213.933 143.112 214.122 143.094 214.373 143.022 z M 212.881 148.129 c 0.305 -0.22 0.988 -1.329 0.65 -1.774 c 0.2 0.246 -1.267 -0.148 -0.589 -0.407 c 0.269 -0.079 1.923 -1.004 2.186 -0.717 c 0.486 0.499 -2.079 3.177 -2.583 3.4 C 212.596 148.357 212.747 148.229 212.881 148.129 C 213.313 147.827 212.747 148.229 212.881 148.129 z M 214.353 151.511 c 1.815 -0.586 2.491 -1.62 3.587 -0.223 c 0.415 0.525 0.328 1.876 -0.653 1.549 c 0.284 0.09 -2.952 -0.205 -2.355 -0.561 c -0.655 0.399 -1.928 0.676 -2.685 0.356 C 212.957 152.23 213.58 151.762 214.353 151.511 C 214.798 151.357 213.58 151.762 214.353 151.511 z M 211.793 148.106 c 0.164 0.438 0.041 0.645 -0.458 0.745 C 211.532 148.541 211.67 148.319 211.793 148.106 z M 185.827 187.599 C 184.974 187.571 186.464 187.571 185.827 187.599 C 185.724 187.589 185.901 187.589 185.827 187.599 z M 196.297 195.118 C 196.069 195.208 196.96 194.967 196.297 195.118 C 196.264 195.131 196.412 195.105 196.297 195.118 z M 221.876 203.571 C 221.441 203.51 222.396 203.615 221.876 203.571 C 221.838 203.571 221.933 203.576 221.876 203.571 z M 226.067 278.577 C 225.348 278.438 226.459 277.99 226.067 278.577 C 225.891 278.531 226.075 278.531 226.067 278.577 z M 227.928 241.05 C 227.672 240.799 228.092 241.203 227.928 241.05 C 227.903 241.016 228 241.088 227.928 241.05 z M 228.223 264.428 C 227.749 264.584 228.719 264.241 228.223 264.428 C 228.1 264.461 228.287 264.389 228.223 264.428 z M 230.685 289.61 c -0.333 -0.187 -0.333 -0.31 -0.013 -0.361 C 231.034 289.385 231.039 289.521 230.685 289.61 C 230.547 289.585 230.806 289.636 230.685 289.61 z M 233.949 291.034 c -0.333 -0.064 -0.31 -0.192 0.097 -0.397 C 234.341 290.765 234.308 290.898 233.949 291.034 C 233.819 291.034 234.042 291.008 233.949 291.034 z M 227.048 281.723 c -0.031 0.028 -0.087 0.054 -0.12 0.059 C 227.04 281.677 227.053 281.667 227.048 281.723 z M 235.135 131.144 L 235.135 131.144 v -0.013 V 131.144 z M 204.402 145.718 c 0 0.013 -0.008 0.013 -0.008 0.013 L 204.402 145.718 z M 205.257 144.996 L 205.257 144.996 L 205.257 144.996 z M 348.814 200.896 l 0.01 0.008 c -1.769 -6.505 -3.108 -12.959 -5.788 -19.274 c -3.21 -7.493 -7.424 -14.577 -12.526 -20.943 c -4.792 -6.003 -10.365 -11.412 -16.533 -16.01 c -2.998 -2.253 -6.124 -4.293 -9.39 -6.162 c -1.544 -0.893 -3.128 -1.72 -4.741 -2.534 c -0.701 -0.33 -3.172 -0.988 -3.553 -1.577 c 0.02 0.276 1.454 0.996 1.636 1.172 c -0.955 -0.256 -3.479 -1.324 -3.51 -1.482 c 0.051 -0.118 0.246 0 0.225 -0.192 c -1.426 -0.899 -6.774 -2.872 -7.828 -1.418 c 0.23 -0.284 3.681 3.715 3.758 4.411 c 0.238 1.559 2.67 3.208 4.216 3.715 c 2.143 0.712 0.53 -0.246 1.436 -0.753 c 0.612 -0.292 1.149 0.98 1.677 0.691 c -0.005 -0.013 0 -0.026 0.026 -0.038 c -0.148 -0.302 -0.315 -0.594 -0.497 -0.888 c -0.154 0 3.917 4.191 4.424 3.274 c -0.481 -1.134 -1.219 -2.424 -2.363 -3.484 c -1.016 -0.957 -2.619 -1.034 -3.73 -1.997 c -0.556 -0.497 -2.632 -2.007 -2.839 -2.706 c 2.726 0.092 5.88 5.868 8.589 3.628 c -0.374 -0.264 -0.73 -0.532 -1.08 -0.835 c 0.497 0.143 2.783 0.891 2.025 1.843 c -2.194 -0.381 1.82 1.825 1.882 2.074 c -0.387 -0.026 -0.658 -0.348 -1.032 -0.374 c 0.161 0.753 2.322 1.544 2.468 2.826 c -1.28 0.207 -0.735 -0.778 -1.587 0.271 c -0.264 0.335 -1.434 0.238 -2.053 0.271 c -1.508 0.113 -3.169 -2.406 -4.268 -3.195 c 0.456 1.426 1.236 2.092 2.824 3.103 c 0.771 0.422 -1.073 0.62 -1.024 1.26 c 0.044 0 0.486 0.233 0.468 0.346 c 0 0.079 -0.407 -0.284 -0.468 -0.346 c 0.131 -0.1 -0.282 2.486 -0.317 2.452 c 1.229 1.431 -1.649 1.014 -1.7 1.065 c 0.22 0.33 0.673 0.479 0.778 0.96 c -0.819 0.054 -1.516 -0.082 -2.312 0.218 c 1.167 0.351 7.652 3.356 6.241 5.614 c -0.463 0.717 -4.854 -0.179 -5.668 -0.228 c -1.687 -0.118 -0.105 1.644 -0.067 1.833 c 0.271 1.28 1.265 1.851 1.185 3.369 c -0.069 1.052 1.024 1.093 1.341 1.994 c 0.294 0.778 0.138 0.863 0.945 0.965 c 1.436 0.182 1.472 -0.038 2.691 0.919 c 0.888 0.673 1.221 -0.63 2.245 -0.678 c 2.565 -0.113 0.376 -0.643 1.62 -0.968 c 1.528 -0.43 -0.428 -2.824 -0.34 -3.295 c 0.115 -0.617 -0.087 -1.316 0.74 -1.551 c 1.298 -0.346 -0.348 -1.71 -0.422 -2.063 c -0.274 -1.083 3.592 0.911 3.139 -1.807 c 2.189 0.696 4.47 2.698 6.525 3.853 c 1.183 0.73 2.404 1.421 3.284 2.557 c 1.047 1.37 -1.518 0.806 -1.669 1.188 c -0.148 0.44 2.255 1.528 2.652 1.508 c 0.049 -0.243 -0.299 -1.628 -0.34 -1.869 c -0.108 -0.952 -1.503 -1.91 -1.413 -2.668 c 0.44 0.033 0.832 0.212 1.201 0.492 c -1.303 -1.6 -3.4 -1.766 -4.879 -2.934 c -0.896 -0.73 -2.012 -1.318 -2.89 -2.079 c 0 0 -1.564 -1.987 -0.468 -1.608 c 1.731 0.599 3.61 2.348 5.368 3.254 c 1.403 0.735 1.731 1.198 2.778 2.394 c 0.407 0.481 2.552 2.964 3.041 3.057 c -0.01 -0.028 1.751 1.572 2.458 1.8 c -0.302 -0.722 -0.591 -1.636 -0.968 -2.202 c -0.474 -0.804 -2.476 -1.242 -2.476 -2.417 c 0.448 0.033 0.494 -0.438 1.487 -0.392 c -0.512 -0.026 0.635 -0.773 0.556 -0.666 c -1.866 -1.078 -4.411 -4.214 -5.074 -6.331 c 0.515 0.018 0.799 0.719 1.362 0.366 c -0.189 -0.366 -0.248 -0.735 -0.189 -1.129 c 0.148 0.161 1.907 1.695 1.549 1.992 c -0.497 -0.01 -0.901 -0.233 -1.265 -0.62 c 0.261 0.899 1.147 0.911 1.516 1.526 c 0.049 -0.236 -0.123 -0.463 0.079 -0.717 c 1.556 0.637 4.713 3.123 5.14 4.849 c -0.694 0.067 -1.976 -1.375 -2.442 -1.027 c -0.141 0.353 -0.123 0.704 0.079 1.034 c -0.207 0.01 -0.412 0.059 -0.571 0.156 c 0.241 0.207 0.376 0.461 0.425 0.781 c -0.274 0.074 -0.497 0.148 -0.776 0.215 c 0.212 0.873 4.797 5.248 5.128 4.797 c 0.095 -0.146 -0.195 -0.586 -0.125 -0.658 c 0.248 -0.274 0.973 0.996 1.347 0.742 c 0.3 -0.197 -0.294 -0.604 0.023 -0.753 c 0.699 -0.361 3.448 5.038 3.804 5.66 c 1.318 2.493 0.438 0.98 -0.563 1.313 c -0.164 0.269 -0.266 0.525 -0.294 0.832 c -1.595 -0.366 -3.346 -1.298 -4.657 -2.23 c -2.084 -1.495 0.668 4.076 -0.538 3.374 c -0.701 -0.404 -1.132 -1.001 -1.997 -1.065 c -1.252 -0.12 -1.62 -1.49 -2.77 -1.856 c -0.945 -0.338 -4.682 -0.673 -4.206 -2.391 c 0.399 -1.464 -1.49 -2.678 -2.115 -3.241 c -0.302 -0.287 -4.475 0.253 -5.143 0.468 c -1.147 0.364 -2.957 0.74 -3.589 1.795 c -1.108 1.987 -3.628 -0.625 -4.659 -0.202 c -0.538 0.195 -0.018 1.83 -0.294 2.358 c -0.43 0.778 -1.428 0.842 -1.687 1.759 c -0.44 1.71 0.847 3.09 0.261 4.657 c -0.468 1.242 -2.867 1.777 -2.89 2.796 c -0.023 0.545 -0.146 1.157 -0.632 1.441 c -1.111 0.627 0.013 2.056 -0.645 2.762 c -3.699 3.763 1.162 7.421 0.333 11.543 c -0.486 2.317 -0.724 2.803 0.261 4.805 c 0.236 0.507 0.054 4.122 1.897 2.66 c 0.22 2.117 2.941 2.555 3.423 4.541 c 0.586 2.388 2.911 3.433 4.726 4.859 c 0.727 0.561 1.336 1.285 2.186 1.723 c 1.49 0.758 2.491 -0.43 3.907 -0.822 c 1.288 -0.361 2.634 -0.225 3.848 0.346 c 0.684 0.338 5.88 -3.343 7.299 -2.642 c 1.029 0.512 1.078 1.766 1.546 2.66 c 0.681 1.26 2.109 -0.404 3.062 0.031 c 1.702 0.773 2.207 6.984 0.771 8.131 c -1.07 0.806 1.398 4.204 1.736 4.902 c 0.965 1.923 1.825 5.274 1.531 7.406 c -0.236 1.736 0.23 4.449 -0.748 5.998 c -0.973 1.505 -1.544 3.126 -2.34 4.861 c -2.061 4.429 -0.092 9.457 -1.859 14.06 c -1.05 2.355 -0.865 4.869 -1.452 7.355 c -0.374 1.572 -2.312 3.876 -1.539 5.535 c 1.142 -1.047 2.857 -0.906 4.163 -1.574 c 2.68 -1.301 3.965 -4.401 5.898 -6.464 c 1.034 -1.085 1.687 -2.455 2.314 -3.802 c 0.579 -1.267 1.777 -2.089 2.314 -3.338 c 1.357 -3.164 2.606 -6.323 3.958 -9.475 c 2.867 -6.815 3.356 -13.368 4.342 -20.672 C 350.243 215.972 350.263 208.625 348.814 200.896 z M 341.981 182.935 c -0.374 -0.911 -5.184 -7.98 -4.636 -8.374 c 0.643 -0.392 10.965 17.841 9.848 20.672 C 345.629 191.073 343.725 187.023 341.981 182.935 C 341.964 182.881 342.33 183.77 341.981 182.935 z M 346.397 215.199 c -0.207 -0.507 0.061 -0.942 0.218 -1.539 C 346.82 214.308 346.469 214.717 346.397 215.199 z M 345.868 218.079 c -0.028 -0.312 -0.033 -0.558 0.154 -0.783 C 346.17 217.597 346.021 217.81 345.868 218.079 z M 344.129 241.492 c -0.154 0.054 -0.374 0.128 -0.543 0.2 c -0.338 0 0.632 -0.458 0.66 -0.489 C 344.211 241.359 344.211 241.441 344.129 241.492 C 344.017 241.7 344.211 241.441 344.129 241.492 z M 344.401 231.982 c -0.003 -0.865 0.023 -0.906 0.896 -1.475 C 345.13 231.124 344.49 231.419 344.401 231.982 z M 345.361 227.558 c -0.01 -1.582 -0.049 -3.469 0.307 -5.002 c 0.049 2.691 0.197 5.417 0.105 8.125 C 345.335 230.103 345.361 228.232 345.361 227.558 C 345.361 226.988 345.361 228.101 345.361 227.558 z M 346.797 232.62 c -0.033 1.449 -0.241 5.404 -1.167 6.525 c 0.064 -2.46 0.98 -4.68 1.032 -7.107 C 346.848 232.274 346.797 232.453 346.797 232.62 S 346.797 232.453 346.797 232.62 z M 347.936 217.823 c -0.433 1.756 -0.008 2.291 -1.055 3.233 c 0 -1.28 -0.481 -3.743 0.847 -4.503 C 347.903 216.975 348.046 217.313 347.936 217.823 C 347.754 218.547 348.046 217.313 347.936 217.823 z M 291.114 301.878 c 0.164 0.241 -11.356 3.482 -12.536 3.748 c -4.8 1.011 -9.641 1.628 -14.536 1.876 c -9.3 0.451 -19.011 -0.392 -27.942 -3.123 c 1.142 0.148 2.529 0.74 3.699 0.548 c -1.116 -0.694 -2.501 -0.438 -3.492 -1.324 c 3.73 0.604 7.288 0.328 10.711 0.76 c -0.366 -0.466 -3.474 -1.224 -3.464 -1.556 c 0.443 -0.031 2.849 -0.108 2.936 -0.174 c 1.134 -0.878 -1.795 -0.755 -1.533 -1.408 c 0.087 -0.161 0.901 0.125 1.165 -0.253 c 0.456 -0.599 0 -0.901 0.174 -1.203 c 0.128 -0.266 4.621 -1.037 5.117 -0.835 c -0.54 0.328 -1.149 -0.054 -0.932 0.827 c -0.453 -0.059 -1.83 -0.028 -1.933 0.594 c 0.049 -0.164 1.546 1.93 1.58 2.025 c 0.543 0.801 2.335 1.313 2.491 2.291 c 0.292 1.633 8.87 1.477 10.158 1.321 c 3.195 -0.369 6.182 -1.495 9.331 -2.051 c 1.889 -0.335 3.74 -0.865 5.65 -1.034 c 0.891 -0.113 3.84 -1.142 4.506 -0.906 C 282.684 303.547 289.54 301.553 291.114 301.878 C 291.14 301.911 290.871 301.814 291.114 301.878 z M 343.233 251.922 c 0.376 -0.934 0.671 -1.894 1.119 -2.79 C 344.073 250.109 343.656 250.998 343.233 251.922 z M 344.744 248.174 c 0.038 -0.113 0.087 -0.243 0.128 -0.333 C 344.879 247.98 344.792 248.061 344.744 248.174 z M 245.789 129.723 c -0.497 -0.074 -0.998 -0.036 -1.508 -0.105 c 0.274 -0.236 1.779 -0.282 1.121 -0.704 c 2.092 -1.293 6.446 -1.546 8.85 -1.267 c 2.693 0.343 5.386 -0.494 8.046 -0.079 c 1.06 0.192 2.002 0.212 3.046 0.274 c 0.952 0.12 -0.115 1.073 0.952 1.224 c 0.627 0.072 1.871 1.5 2.455 1.183 c -0.028 0.996 -0.468 0.317 -0.164 1.234 c 0.079 0.205 1.175 0.84 1.129 0.906 c -0.095 0.161 -3.121 -0.064 -2.97 -0.028 c -0.23 -0.038 0.054 0.471 0.246 0.392 c 0.607 0.151 1.897 -0.046 2.555 0.003 c -1.513 1.39 -3.796 1.211 -5.476 2.304 c -1.016 0.694 -2.573 0.627 -3.712 1.029 c 0 1.165 -0.868 2.56 -1.633 3.763 c -0.55 0.822 -4.37 -1.08 -4.754 -1.569 c -0.845 -1.006 -2.742 -3.633 -0.684 -4.452 c 2.514 -0.996 0.013 -0.182 -0.732 -0.717 c 0.599 -0.847 1.277 -0.548 2.22 -0.425 c -0.471 -0.666 -1.098 -0.84 -1.818 -0.486 c -0.233 -0.719 1.042 -1.377 -0.084 -2.145 c -0.479 -0.333 -3.139 0.064 -3.205 -0.402 c -0.166 -1.149 3.218 -0.543 3.814 -1.49 C 250.95 127.626 248.247 130.086 245.789 129.723 C 245.29 129.649 246.235 129.784 245.789 129.723 z M 293.411 146.98 c 0.407 -0.054 -0.507 -1.341 -0.753 -1.613 c 0.302 0.033 0.53 0.061 0.801 -0.102 c -0.195 -0.589 -2.857 -2.12 -3.023 -2.01 c -1.001 0.625 -2.25 -2.156 -2.36 -2.547 c 1.7 -0.22 2.757 1.595 4.278 2.358 c 1.326 0.627 6.052 2.875 6.18 4.293 c 0.108 0.714 -3.561 0.422 -4.111 1.265 c -0.407 -1.052 0.906 -1.032 0.886 -1.354 C 295.261 147.018 293.623 146.947 293.411 146.98 C 293.336 146.998 293.997 146.895 293.411 146.98 z M 245.206 148.311 c -0.248 0.177 -3.443 3.213 -3.361 3.502 c 0.054 0.284 3.315 0.072 3.863 0.397 c -0.036 0.361 -0.476 0.166 -0.545 0.504 c 0.433 0 1.741 -0.829 1.964 -0.586 c 0.031 0.205 0 0.415 -0.108 0.602 c 1.434 1.418 1.295 -1.667 1.377 -1.83 c -1.011 -0.146 0.228 -1.549 -1.5 -0.952 c 0.123 -0.046 -1.838 -0.589 -1.736 -0.468 c -0.156 -0.161 1.385 -1.513 1.508 -1.667 C 245.754 147.571 245.633 147.971 245.206 148.311 C 244.663 148.7 245.313 148.209 245.206 148.311 z M 248.365 151.665 C 248.498 151.77 248.145 151.77 248.365 151.665 C 248.393 151.683 248.329 151.675 248.365 151.665 z M 247.638 151.58 c 0.087 -0.1 0.643 -0.338 0.312 -0.023 C 247.832 151.762 247.341 151.91 247.638 151.58 C 247.676 151.537 247.587 151.665 247.638 151.58 z M 245.393 147.901 l 0.01 -0.015 c 0 0.015 0 0.02 0.013 0.036 C 245.403 147.907 245.403 147.907 245.393 147.901 z M 242.487 150.799 c 0.1 0 0.174 0 0.238 0.059 C 242.643 150.861 242.292 150.838 242.487 150.799 C 242.587 150.799 242.426 150.802 242.487 150.799 z M 211.099 188.529 c -0.888 0.092 0.571 -0.686 0.451 -0.968 c -0.604 -1.375 -4.695 -1.677 -5.084 -2.762 c 0.177 -0.09 0.302 -0.205 0.361 -0.379 c -1.413 -0.581 -2.117 1.147 -3.402 1.024 c 2.637 -4.467 9.196 0.645 11.832 2.721 C 213.853 188.321 212.463 188.332 211.099 188.529 C 210.976 188.534 211.849 188.436 211.099 188.529 z M 214.504 190.907 c -0.653 -0.274 2.171 -0.251 2.56 -0.417 c -0.566 -0.842 -0.049 -1.311 -1.139 -1.654 c 0.998 -1.211 4.283 0.212 5.32 0.66 c -0.067 0.156 -0.282 0.01 -0.392 0.205 c 0.092 0.072 2.258 1.866 0.801 1.244 c -1.592 -0.673 -2.481 0.284 -3.615 0.906 C 217.151 190.6 215.679 191.47 214.504 190.907 C 214.381 190.861 214.783 191.053 214.504 190.907 z M 291.107 145.142 c 1.541 1.597 -0.832 2.811 -1.905 1.792 c -0.533 -0.53 -0.22 -1.833 -1.444 -2.202 c 0.333 -0.095 0.663 -0.212 0.996 -0.323 C 287.889 142.449 290.728 144.732 291.107 145.142 C 291.45 145.508 290.999 145.016 291.107 145.142 z M 271.098 135.475 c -0.113 -0.31 2.199 -0.174 2.591 -0.243 c 0.612 -0.105 5.197 0.34 3.587 1.091 c -1.239 0.558 -3.098 1.196 -4.278 0.118 C 272.703 136.195 271.105 135.547 271.098 135.475 C 271.013 135.252 271.187 135.782 271.098 135.475 z M 312.987 158.208 c 0.522 0 1.818 2.068 1.613 2.394 c -0.62 0.98 -1.631 -1.49 -2.284 -1.869 C 312.549 158.579 312.759 158.405 312.987 158.208 z M 241.386 130.363 c 1.564 -1.206 1.91 -0.517 3.855 -0.333 C 244.63 130.611 243.132 130.719 241.386 130.363 C 241.824 130.022 243.132 130.719 241.386 130.363 z M 275.926 129.009 c -1.155 -0.333 -2.376 -0.381 -3.5 -0.829 c 1.341 -0.136 2.964 0.379 3.909 0.645 C 276.64 128.932 275.823 128.975 275.926 129.009 C 274.771 128.676 276.041 129.027 275.926 129.009 z M 272.426 128.177 c -0.1 0.023 -0.261 0.031 -0.376 0.051 C 272.168 128.105 272.321 128.072 272.426 128.177 C 272.326 128.2 272.38 128.166 272.426 128.177 z M 211.442 190.996 c 0.279 0.023 0.397 0.146 0.445 0.392 c -0.146 0.64 -2.181 -0.271 -2.409 -0.571 C 210.182 190.42 210.83 190.659 211.442 190.996 z M 226.034 190.935 C 224.948 193.564 222.245 189.1 226.034 190.935 C 225.868 191.314 225.396 190.633 226.034 190.935 z M 230.23 203.74 L 230.23 203.74 c 0.031 -0.067 0.087 -0.105 0.189 -0.125 C 230.353 203.674 230.309 203.699 230.23 203.74 z M 230.616 203.674 c -0.069 -0.026 0.269 -1.101 0.955 -1.142 C 232.383 203.036 231.003 203.72 230.616 203.674 C 230.545 203.648 231.492 203.771 230.616 203.674 z M 239.164 129.784 c -0.712 0.481 -1.59 0.174 -2.34 0.433 C 237.869 129.516 238.335 129.569 239.164 129.784 C 238.452 130.266 239.049 129.754 239.164 129.784 z M 211.974 182.84 c -0.284 -1.078 -0.694 -1.096 0.023 -2.043 C 212.282 181.796 212.282 182.41 211.974 182.84 C 211.849 182.392 212.282 182.41 211.974 182.84 z M 192.357 220.255 c -0.02 0.397 -0.205 0.548 -0.579 0.41 c -0.118 -0.113 -0.187 -1.428 0.031 -1.702 C 191.981 219.397 192.193 219.807 192.357 220.255 C 192.434 220.429 192.193 219.807 192.357 220.255 z M 237.713 149.496 c 0.829 -0.031 1.516 0.22 2.248 0.776 C 238.975 150.474 238.335 150.088 237.713 149.496 z M 312.636 157.855 l 0.008 0.01 c -0.238 -0.095 -1.718 -0.975 -1.119 -1.464 C 311.953 156.093 312.582 157.686 312.636 157.855 z M 327.822 165.399 c -0.294 -0.292 -0.873 -0.087 -1.032 -0.684 c 0.525 0.266 1.075 0.12 1.559 0.517 C 328.18 165.376 327.991 165.548 327.822 165.399 C 327.528 165.107 327.991 165.548 327.822 165.399 z M 240.434 130.278 c -0.136 -0.205 -0.397 -0.061 -0.54 -0.256 c 0.412 -0.453 0.98 -0.3 1.5 -0.443 C 241.366 129.649 240.754 130.749 240.434 130.278 C 240.298 130.074 240.508 130.435 240.434 130.278 z M 237.902 130.834 c -0.66 0.507 -1.352 1.014 -2.291 0.927 C 236.238 131.116 237.093 131.023 237.902 130.834 z M 237.682 153.254 c 0.172 0.026 0.376 -0.018 0.653 -0.041 c -0.878 1.083 -1.907 -0.44 -1.697 -0.494 C 236.484 152.76 237.613 153.244 237.682 153.254 C 237.853 153.28 237.313 153.183 237.682 153.254 z M 238.058 131.274 c 0.614 -0.494 1.334 -0.586 2.122 -0.525 C 239.515 131.144 238.821 131.343 238.058 131.274 z M 308.865 160.376 c -0.717 -0.092 1.321 -0.753 0.579 0.2 C 309.224 160.566 309.011 160.504 308.865 160.376 C 308.727 160.361 309.07 160.397 308.865 160.376 z M 331.439 165.537 c -0.417 -0.195 -0.594 -0.492 -0.456 -0.991 C 331.35 164.808 331.488 165.1 331.439 165.537 z M 239.597 134.564 c 0.264 -0.463 0.548 -0.586 1.421 -0.576 C 240.603 134.492 240.109 134.592 239.597 134.564 z M 233.061 137.6 c -0.522 0.274 -0.896 0.481 -1.449 0.445 C 231.986 137.6 232.447 137.613 233.061 137.6 z M 287.366 141.325 c -0.1 0.202 -0.003 0.346 0.133 0.479 c -0.151 -0.074 -0.786 -0.858 -0.287 -0.988 C 287.418 140.92 287.471 141.082 287.366 141.325 C 287.267 141.527 287.438 141.215 287.366 141.325 z M 205.546 185.646 c -0.026 0.317 -0.187 0.458 -0.481 0.456 C 204.937 185.841 205.4 185.083 205.546 185.646 C 205.585 185.836 205.508 185.528 205.546 185.646 z M 235.995 279.613 c 0.246 0.084 0.381 0.269 0.415 0.517 C 236.41 280.919 234.979 279.713 235.995 279.613 C 236.148 279.59 235.767 279.636 235.995 279.613 z M 233.949 138.063 c -0.174 0.266 -0.407 0.397 -0.791 0.522 C 233.353 138.158 233.627 138.092 233.949 138.063 z M 193.012 220.119 C 192.943 221.018 192.756 219.238 193.012 220.119 C 193.007 220.237 192.989 220.009 193.012 220.119 z M 239.986 139.574 c 0.026 -0.015 0.069 0.018 0.115 0.026 C 239.986 139.666 239.799 139.666 239.986 139.574 z M 235.951 130.952 c -0.102 0.023 -0.218 0.033 -0.315 0.046 C 235.716 130.929 235.836 130.913 235.951 130.952 z M 235.585 131.008 c -0.074 0 0.026 -0.01 0.051 -0.01 C 235.611 131 235.593 131 235.585 131.008 z M 235.148 131.131 l -0.013 0.013 C 235.135 131.131 235.135 131.131 235.148 131.131 z M 235.148 131.131 c 0.105 -0.133 0.271 -0.108 0.415 -0.123 C 235.457 131.162 235.322 131.18 235.148 131.131 z M 238.033 131.274 h 0.028 C 238.058 131.295 238.033 131.297 238.033 131.274 z M 238.033 131.295 c -0.036 0.161 -0.161 0.141 -0.282 0.141 C 237.789 131.295 237.902 131.269 238.033 131.295 z M 204.745 223.99 C 204.53 223.836 204.865 224.087 204.745 223.99 C 204.648 223.918 204.842 224.061 204.745 223.99 z M 301.505 138.399 C 302.068 138.534 301.526 138.504 301.505 138.399 C 301.505 138.399 301.513 138.481 301.505 138.399 z M 287.507 141.819 c -0.008 0 -0.008 -0.018 -0.008 -0.018 c 0.072 0.018 0.084 0.049 0.072 0.118 C 287.571 141.875 287.528 141.85 287.507 141.819 C 287.5 141.819 287.528 141.85 287.507 141.819 z M 237.728 131.436 c 0.018 0 0.018 0 0.02 0 C 237.748 131.443 237.746 131.443 237.728 131.436 C 237.728 131.438 237.728 131.438 237.728 131.436 z M 237.559 131.479 c 0.054 -0.028 0.123 -0.028 0.169 -0.044 C 237.659 131.566 237.582 131.581 237.559 131.479 C 237.613 131.453 237.569 131.494 237.559 131.479 z M 320.001 159.439 v -0.01 l 0.01 0.018 L 320.001 159.439 z M 248.175 217.777 C 247.889 217.546 248.378 217.608 248.175 217.777 C 248.145 217.759 248.247 217.718 248.175 217.777 z M 291.201 301.839 c -0.038 0.033 -0.054 0.033 -0.087 0.033 c 0.026 -0.059 0.033 -0.09 0.087 -0.064 C 291.201 301.809 291.201 301.829 291.201 301.839 z M 291.114 301.878 c 0 -0.005 -0.008 -0.005 0 -0.005 V 301.878 z M 218.84 153.718 c 0.046 -0.008 0.886 -0.097 0.602 0.223 C 219.109 154.117 218.917 154.028 218.84 153.718 C 218.956 153.71 218.845 153.892 218.84 153.718 z M 213.569 146.355 c -0.236 -0.148 -0.182 -0.323 0.161 -0.486 C 214.017 145.961 213.966 146.125 213.569 146.355 C 213.441 146.345 213.756 146.304 213.569 146.355 z" style="stroke: none; stroke-width: 1; stroke-dasharray: none; stroke-linecap: butt; stroke-linejoin: miter; stroke-miterlimit: 10; fill: #F2F2F2; fill-rule: nonzero; opacity: 1;" transform=" matrix(1 0 0 1 0 0) " stroke-linecap="round" />
  <rect x="198.28" y="424.22" rx="0" ry="0" width="123.06" height="65.04" style="stroke: none; stroke-width: 1; stroke-dasharray: none; stroke-linecap: butt; stroke-linejoin: miter; stroke-miterlimit: 10; fill: #242D3C; fill-rule: nonzero; opacity: 1;" transform=" matrix(1 0 0 1 0 0) "/>
  <rect x="192.65" y="433.54" rx="0" ry="0" width="134.27" height="9.26" style="stroke: none; stroke-width: 1; stroke-dasharray: none; stroke-linecap: butt; stroke-linejoin: miter; stroke-miterlimit: 10; fill: #3E4959; fill-rule: nonzero; opacity: 1;" transform=" matrix(1 0 0 1 0 0) "/>
  <rect x="192.65" y="452.12" rx="0" ry="0" width="134.27" height="9.29" style="stroke: none; stroke-width: 1; stroke-dasharray: none; stroke-linecap: butt; stroke-linejoin: miter; stroke-miterlimit: 10; fill: #3E4959; fill-rule: nonzero; opacity: 1;" transform=" matrix(1 0 0 1 0 0) "/>
  <rect x="192.65" y="470.71" rx="0" ry="0" width="134.27" height="9.31" style="stroke: none; stroke-width: 1; stroke-dasharray: none; stroke-linecap: butt; stroke-linejoin: miter; stroke-miterlimit: 10; fill: #3E4959; fill-rule: nonzero; opacity: 1;" transform=" matrix(1 0 0 1 0 0) "/>
  <rect x="219.81" y="489.27" rx="0" ry="0" width="80" height="22.75" style="stroke: none; stroke-width: 1; stroke-dasharray: none; stroke-linecap: butt; stroke-linejoin: miter; stroke-miterlimit: 10; fill: #3E4959; fill-rule: nonzero; opacity: 1;" transform=" matrix(1 0 0 1 0 0) "/>
  <path d="M 333.859 12.513 c 0 6.899 -5.606 12.518 -12.498 12.518 c -6.922 0 -12.529 -5.617 -12.529 -12.518 S 314.438 0 321.361 0 C 328.252 0 333.859 5.612 333.859 12.513 z" style="stroke: none; stroke-width: 1; stroke-dasharray: none; stroke-linecap: butt; stroke-linejoin: miter; stroke-miterlimit: 10; fill: #CCCBCA; fill-rule: nonzero; opacity: 1;" transform=" matrix(1 0 0 1 0 0) " stroke-linecap="round" />
  <path d="M 54.496 116.677 c 0 5.494 -4.47 9.969 -9.969 9.969 c -5.514 0 -9.987 -4.472 -9.987 -9.969 c 0 -5.514 4.472 -9.987 9.987 -9.987 C 50.026 106.691 54.496 111.163 54.496 116.677 z" style="stroke: none; stroke-width: 1; stroke-dasharray: none; stroke-linecap: butt; stroke-linejoin: miter; stroke-miterlimit: 10; fill: #242D3C; fill-rule: nonzero; opacity: 1;" transform=" matrix(1 0 0 1 0 0) " stroke-linecap="round" />
  <path d="M 78.931 370.194 c 0 5.059 -4.091 9.147 -9.149 9.147 c -5.074 0 -9.16 -4.091 -9.16 -9.147 c 0 -5.074 4.086 -9.162 9.16 -9.162 C 74.84 361.032 78.931 365.12 78.931 370.194 z" style="stroke: none; stroke-width: 1; stroke-dasharray: none; stroke-linecap: butt; stroke-linejoin: miter; stroke-miterlimit: 10; fill: #CCCBCA; fill-rule: nonzero; opacity: 1;" transform=" matrix(1 0 0 1 0 0) " stroke-linecap="round" />
  <path d="M 477.472 210.25 c 0 3.802 -3.062 6.868 -6.881 6.868 c -3.784 0 -6.856 -3.064 -6.856 -6.868 c 0 -3.789 3.072 -6.884 6.856 -6.884 C 474.408 203.364 477.472 206.459 477.472 210.25 z" style="stroke: none; stroke-width: 1; stroke-dasharray: none; stroke-linecap: butt; stroke-linejoin: miter; stroke-miterlimit: 10; fill: #CCCBCA; fill-rule: nonzero; opacity: 1;" transform=" matrix(1 0 0 1 0 0) " stroke-linecap="round" />
  <path d="M 432.155 388.28 c 0 9.94 -8.056 17.971 -17.966 17.971 c -9.928 0 -17.971 -8.031 -17.971 -17.971 c 0 -9.907 8.044 -17.956 17.971 -17.956 C 424.096 370.324 432.155 378.373 432.155 388.28 z" style="stroke: none; stroke-width: 1; stroke-dasharray: none; stroke-linecap: butt; stroke-linejoin: miter; stroke-miterlimit: 10; fill: #CCCBCA; fill-rule: nonzero; opacity: 1;" transform=" matrix(1 0 0 1 0 0) " stroke-linecap="round" />
  <circle cx="426.60499999999996" cy="60.955" r="9.155" style="stroke: none; stroke-width: 1; stroke-dasharray: none; stroke-linecap: butt; stroke-linejoin: miter; stroke-miterlimit: 10; fill: #242D3C; fill-rule: nonzero; opacity: 1;" transform="  matrix(1 0 0 1 0 0) "/>
  <circle cx="390.558" cy="97.43799999999999" r="17.728" style="stroke: none; stroke-width: 1; stroke-dasharray: none; stroke-linecap: butt; stroke-linejoin: miter; stroke-miterlimit: 10; fill: #CCCBCA; fill-rule: nonzero; opacity: 1;" transform="  matrix(1 0 0 1 0 0) "/>
  <circle cx="86.208" cy="253.138" r="21.898" style="stroke: none; stroke-width: 1; stroke-dasharray: none; stroke-linecap: butt; stroke-linejoin: miter; stroke-miterlimit: 10; fill: #242D3C; fill-rule: nonzero; opacity: 1;" transform="  matrix(1 0 0 1 0 0) "/>
</g>
  <g transform="translate(929.79 243.65) scale(4.84 4.84)">
   <text font-family="ADAMCG PRO" font-size="40" font-weight="normal" style="stroke: none; stroke-width: 1; stroke-dasharray: none; stroke-linecap: butt; stroke-linejoin: miter; stroke-miterlimit: 10; fill: #000000; fill-rule: nonzero; opacity: 1;" ><tspan x="-124.5" y="8.98" style="stroke: none; stroke-width: 0; stroke-dasharray: none; stroke-linecap: butt; stroke-linejoin: miter; stroke-miterlimit: 4; fill: #000000; fill-rule: ; opacity: 1;">s</tspan><tspan x="-103.38" y="8.98" style="stroke: none; stroke-width: 0; stroke-dasharray: none; stroke-linecap: butt; stroke-linejoin: miter; stroke-miterlimit: 4; fill: #000000; fill-rule: ; opacity: 1;">i</tspan><tspan x="-92.6" y="8.98" style="stroke: none; stroke-width: 0; stroke-dasharray: none; stroke-linecap: butt; stroke-linejoin: miter; stroke-miterlimit: 4; fill: #000000; fill-rule: ; opacity: 1;">n</tspan><tspan x="-63.08" y="8.98" style="stroke: none; stroke-width: 0; stroke-dasharray: none; stroke-linecap: butt; stroke-linejoin: miter; stroke-miterlimit: 4; fill: #000000; fill-rule: ; opacity: 1;">t</tspan><tspan x="-39.72" y="8.98" style="stroke: none; stroke-width: 0; stroke-dasharray: none; stroke-linecap: butt; stroke-linejoin: miter; stroke-miterlimit: 4; fill: #000000; fill-rule: ; opacity: 1;">W</tspan><tspan x="5.1" y="8.98" style="stroke: none; stroke-width: 0; stroke-dasharray: none; stroke-linecap: butt; stroke-linejoin: miter; stroke-miterlimit: 4; fill: #000000; fill-rule: ; opacity: 1;">I</tspan><tspan x="15.88" y="8.98" style="stroke: none; stroke-width: 0; stroke-dasharray: none; stroke-linecap: butt; stroke-linejoin: miter; stroke-miterlimit: 4; fill: #000000; fill-rule: ; opacity: 1;">Z</tspan><tspan x="44.07" y="8.98" style="stroke: none; stroke-width: 0; stroke-dasharray: none; stroke-linecap: butt; stroke-linejoin: miter; stroke-miterlimit: 4; fill: #000000; fill-rule: ; opacity: 1;">A</tspan><tspan x="71.87" y="8.98" style="stroke: none; stroke-width: 0; stroke-dasharray: none; stroke-linecap: butt; stroke-linejoin: miter; stroke-miterlimit: 4; fill: #000000; fill-rule: ; opacity: 1;">R</tspan><tspan x="97.5" y="8.98" style="stroke: none; stroke-width: 0; stroke-dasharray: none; stroke-linecap: butt; stroke-linejoin: miter; stroke-miterlimit: 4; fill: #000000; fill-rule: ; opacity: 1;">D</tspan></text>
 </g>
<g style="stroke: none; stroke-width: 1; stroke-dasharray: none; stroke-linecap: butt; stroke-linejoin: miter; stroke-miterlimit: 10; fill: none; fill-rule: nonzero; opacity: 1;" transform="translate(1425.1399999999999 186.96000000000004) scale(0.11 0.11)" >
  <polygon points="379.58,231.45 379.58,203.99 308.98,203.99 308.98,231.45 344.28,262.82 " style="stroke: none; stroke-width: 1; stroke-dasharray: none; stroke-linecap: butt; stroke-linejoin: miter; stroke-miterlimit: 10; fill: #E6AF78; fill-rule: nonzero; opacity: 1;" transform="  matrix(1 0 0 1 0 0) "/>
  <path d="M 434.16 244.29 l -48.535 -11.42 c -0.733 -0.172 -1.407 -0.466 -2.038 -0.82 l -39.31 22.93 l -37.778 -24.041 c -0.978 0.92 -2.191 1.606 -3.571 1.93 l -48.535 11.42 c -7.087 1.667 -12.096 7.991 -12.096 15.272 v 38.564 l 101.98 19.668 l 101.98 -19.668 v -38.564 C 446.256 252.281 441.247 245.958 434.16 244.29 z" style="stroke: none; stroke-width: 1; stroke-dasharray: none; stroke-linecap: butt; stroke-linejoin: miter; stroke-miterlimit: 10; fill: #B4E1FA; fill-rule: nonzero; opacity: 1;" transform=" matrix(1 0 0 1 0 0) " stroke-linecap="round" />
  <path d="M 308.976 203.991 v 28.969 c 44.469 16.022 70.601 -24.077 70.601 -24.077 v -4.892 L 308.976 203.991 L 308.976 203.991 z" style="stroke: none; stroke-width: 1; stroke-dasharray: none; stroke-linecap: butt; stroke-linejoin: miter; stroke-miterlimit: 10; fill: #D29B6E; fill-rule: nonzero; opacity: 1;" transform=" matrix(1 0 0 1 0 0) " stroke-linecap="round" />
  <path d="M 293.286 113.778 l 3.418 75.196 c 0.319 7.025 3.764 13.539 9.389 17.759 l 16.217 12.163 c 4.074 3.055 9.028 4.707 14.12 4.707 h 15.689 c 5.092 0 10.047 -1.652 14.12 -4.707 l 16.217 -12.163 c 5.625 -4.22 9.07 -10.733 9.389 -17.759 l 3.418 -75.196 H 293.286 z" style="stroke: none; stroke-width: 1; stroke-dasharray: none; stroke-linecap: butt; stroke-linejoin: miter; stroke-miterlimit: 10; fill: #F0C087; fill-rule: nonzero; opacity: 1;" transform=" matrix(1 0 0 1 0 0) " stroke-linecap="round" />
  <path d="M 332.509 129.468 c 15.689 0 39.223 -3.923 44.804 -15.689 h -84.028 l 3.417 75.196 c 0.319 7.025 3.764 13.539 9.389 17.758 l 16.217 12.163 c 4.074 3.055 9.028 4.707 14.12 4.707 h 7.847 c -7.844 0 -23.533 -15.689 -23.533 -35.3 c 0 -9.591 0 -35.3 0 -47.068 C 320.742 137.312 324.665 129.468 332.509 129.468 z" style="stroke: none; stroke-width: 1; stroke-dasharray: none; stroke-linecap: butt; stroke-linejoin: miter; stroke-miterlimit: 10; fill: #E6AF78; fill-rule: nonzero; opacity: 1;" transform=" matrix(1 0 0 1 0 0) " stroke-linecap="round" />
  <path d="M 417.461 272.67 l 25.416 -22.831 c 2.13 2.697 3.379 6.09 3.379 9.724 v 30.719 c 0 4.332 -3.512 7.844 -7.844 7.844 h -27.456 v -10.867 C 410.955 281.694 413.32 276.39 417.461 272.67 z" style="stroke: none; stroke-width: 1; stroke-dasharray: none; stroke-linecap: butt; stroke-linejoin: miter; stroke-miterlimit: 10; fill: #A0D2F0; fill-rule: nonzero; opacity: 1;" transform=" matrix(1 0 0 1 0 0) " stroke-linecap="round" />
  <path d="M 271.091 272.67 l -25.416 -22.831 c -2.13 2.697 -3.379 6.09 -3.379 9.724 v 30.719 c 0 4.332 3.512 7.844 7.844 7.844 h 27.456 v -10.867 C 277.597 281.694 275.232 276.39 271.091 272.67 z" style="stroke: none; stroke-width: 1; stroke-dasharray: none; stroke-linecap: butt; stroke-linejoin: miter; stroke-miterlimit: 10; fill: #A0D2F0; fill-rule: nonzero; opacity: 1;" transform=" matrix(1 0 0 1 0 0) " stroke-linecap="round" />
  <polygon points="354.08,315.78 334.47,315.78 336.92,262.82 351.63,262.82 " style="stroke: none; stroke-width: 1; stroke-dasharray: none; stroke-linecap: butt; stroke-linejoin: miter; stroke-miterlimit: 10; fill: #5B5D6E; fill-rule: nonzero; opacity: 1;" transform="  matrix(1 0 0 1 0 0) "/>
  <path d="M 354.081 254.98 H 334.47 v 4.625 c 0 3.945 3.198 7.143 7.143 7.143 h 5.326 c 3.945 0 7.143 -3.198 7.143 -7.143 L 354.081 254.98 L 354.081 254.98 z" style="stroke: none; stroke-width: 1; stroke-dasharray: none; stroke-linecap: butt; stroke-linejoin: miter; stroke-miterlimit: 10; fill: #515262; fill-rule: nonzero; opacity: 1;" transform=" matrix(1 0 0 1 0 0) " stroke-linecap="round" />
  <path d="M 308.424 222.715 l 35.852 32.266 c 0 0 -10.04 5.068 -22.431 15.285 c -2.556 2.108 -6.422 1.254 -7.793 -1.762 l -16.844 -37.056 l 5.329 -7.993 C 303.863 221.464 306.647 221.115 308.424 222.715 z" style="stroke: none; stroke-width: 1; stroke-dasharray: none; stroke-linecap: butt; stroke-linejoin: miter; stroke-miterlimit: 10; fill: #A0D2F0; fill-rule: nonzero; opacity: 1;" transform=" matrix(1 0 0 1 0 0) " stroke-linecap="round" />
  <path d="M 380.127 222.715 l -35.851 32.266 c 0 0 10.04 5.068 22.431 15.285 c 2.556 2.108 6.422 1.254 7.793 -1.762 l 16.844 -37.056 l -5.329 -7.993 C 384.689 221.464 381.905 221.115 380.127 222.715 z" style="stroke: none; stroke-width: 1; stroke-dasharray: none; stroke-linecap: butt; stroke-linejoin: miter; stroke-miterlimit: 10; fill: #A0D2F0; fill-rule: nonzero; opacity: 1;" transform=" matrix(1 0 0 1 0 0) " stroke-linecap="round" />
  <path d="M 368.055 87.793 l 3.677 25.985 c 16.785 3.357 19.204 29.698 19.553 37.223 c 0.063 1.365 0.499 2.684 1.24 3.832 l 6.404 9.934 c 0 0 -2.193 -16.425 7.844 -27.456 C 406.773 137.312 410.219 72.104 368.055 87.793 z" style="stroke: none; stroke-width: 1; stroke-dasharray: none; stroke-linecap: butt; stroke-linejoin: miter; stroke-miterlimit: 10; fill: #785550; fill-rule: nonzero; opacity: 1;" transform=" matrix(1 0 0 1 0 0) " stroke-linecap="round" />
  <path d="M 402.864 163.09 l -4.429 17.718 c -0.525 2.099 -2.411 3.572 -4.575 3.572 l 0 0 c -2.378 0 -4.384 -1.771 -4.679 -4.13 l -2.265 -18.122 c -0.606 -4.846 3.172 -9.127 8.056 -9.127 h 0.015 C 400.27 153.001 404.145 157.965 402.864 163.09 z" style="stroke: none; stroke-width: 1; stroke-dasharray: none; stroke-linecap: butt; stroke-linejoin: miter; stroke-miterlimit: 10; fill: #F0C087; fill-rule: nonzero; opacity: 1;" transform=" matrix(1 0 0 1 0 0) " stroke-linecap="round" />
  <path d="M 297.045 80.766 l 5.802 3.964 c -26.23 19.367 -21.327 52.584 -21.327 52.584 c 7.844 7.844 7.844 27.456 7.844 27.456 l 7.844 -7.844 c 0 0 -3.028 -22.66 11.767 -31.379 c 13.728 -8.089 25.74 -3.923 37.997 -3.923 c 32.85 0 42.043 -12.38 40.449 -27.456 c -0.824 -7.801 -12.751 -24.051 -43.145 -23.533 C 332.01 70.841 308.976 74.555 297.045 80.766 z" style="stroke: none; stroke-width: 1; stroke-dasharray: none; stroke-linecap: butt; stroke-linejoin: miter; stroke-miterlimit: 10; fill: #694B4B; fill-rule: nonzero; opacity: 1;" transform=" matrix(1 0 0 1 0 0) " stroke-linecap="round" />
  <path d="M 294.757 118.19 c 0 0 -4.168 -16.425 8.089 -33.462 c -26.23 19.367 -21.327 52.584 -21.327 52.584 c 7.844 7.844 7.844 27.456 7.844 27.456 l 7.844 -7.844 c 0 0 -3.028 -22.66 11.767 -31.379 c 13.728 -8.089 25.74 -3.923 37.997 -3.923 c 5.342 0 9.998 -0.358 14.144 -0.971 C 335.818 121.5 320.906 102.338 294.757 118.19 z" style="stroke: none; stroke-width: 1; stroke-dasharray: none; stroke-linecap: butt; stroke-linejoin: miter; stroke-miterlimit: 10; fill: #5A4146; fill-rule: nonzero; opacity: 1;" transform=" matrix(1 0 0 1 0 0) " stroke-linecap="round" />
  <path d="M 285.689 163.09 l 4.429 17.718 c 0.525 2.099 2.411 3.572 4.575 3.572 l 0 0 c 2.378 0 4.384 -1.771 4.679 -4.13 l 2.265 -18.122 c 0.606 -4.846 -3.172 -9.127 -8.056 -9.127 h -0.015 C 288.283 153.001 284.407 157.965 285.689 163.09 z" style="stroke: none; stroke-width: 1; stroke-dasharray: none; stroke-linecap: butt; stroke-linejoin: miter; stroke-miterlimit: 10; fill: #E6AF78; fill-rule: nonzero; opacity: 1;" transform=" matrix(1 0 0 1 0 0) " stroke-linecap="round" />
  <path d="M 393.474 290.281 h -23.873 c -3.156 0 -5.714 2.558 -5.714 5.714 v 12.971 h 35.3 v -12.97 C 399.188 292.84 396.63 290.281 393.474 290.281 z" style="stroke: none; stroke-width: 1; stroke-dasharray: none; stroke-linecap: butt; stroke-linejoin: miter; stroke-miterlimit: 10; fill: #A0D2F0; fill-rule: nonzero; opacity: 1;" transform=" matrix(1 0 0 1 0 0) " stroke-linecap="round" />
  <rect x="189.26" y="266.19" rx="0" ry="0" width="31.94" height="81.15" style="stroke: none; stroke-width: 1; stroke-dasharray: none; stroke-linecap: butt; stroke-linejoin: miter; stroke-miterlimit: 10; fill: #D7DEED; fill-rule: nonzero; opacity: 1;" transform=" matrix(0.7071 0.7071 -0.7071 0.7071 277.0252 -55.2723) "/>
  <path d="M 202.44 286.975 c 6.869 8.161 14.423 15.716 22.584 22.585 l 20.2 -20.2 l -22.584 -22.585 L 202.44 286.975 z" style="stroke: none; stroke-width: 1; stroke-dasharray: none; stroke-linecap: butt; stroke-linejoin: miter; stroke-miterlimit: 10; fill: #C7CFE2; fill-rule: nonzero; opacity: 1;" transform=" matrix(1 0 0 1 0 0) " stroke-linecap="round" />
  <path d="M 344.276 0 c -92.631 0 -167.724 75.093 -167.724 167.724 s 75.093 167.724 167.724 167.724 S 512 260.355 512 167.724 S 436.907 0 344.276 0 z M 344.276 308.966 c -78.005 0 -141.241 -63.236 -141.241 -141.241 c 0 -78.006 63.236 -141.241 141.241 -141.241 c 78.006 0 141.241 63.235 141.241 141.241 C 485.518 245.729 422.282 308.966 344.276 308.966 z" style="stroke: none; stroke-width: 1; stroke-dasharray: none; stroke-linecap: butt; stroke-linejoin: miter; stroke-miterlimit: 10; fill: #D7DEED; fill-rule: nonzero; opacity: 1;" transform=" matrix(1 0 0 1 0 0) " stroke-linecap="round" />
  <path d="M 23.9 506.83 L 5.172 488.106 c -6.895 -6.894 -6.897 -18.074 -0.001 -24.97 L 154.17 314.137 c 6.894 -6.894 18.072 -6.894 24.967 -0.001 l 18.728 18.724 c 6.895 6.894 6.897 18.074 0.001 24.97 L 48.867 506.829 C 41.973 513.724 30.795 513.724 23.9 506.83 z" style="stroke: none; stroke-width: 1; stroke-dasharray: none; stroke-linecap: butt; stroke-linejoin: miter; stroke-miterlimit: 10; fill: #707487; fill-rule: nonzero; opacity: 1;" transform=" matrix(1 0 0 1 0 0) " stroke-linecap="round" />
  <path d="M 22.826 480.791 l 148.999 -148.999 c 6.894 -6.894 18.071 -6.895 24.967 -0.001 l 1.092 1.091 c 0 0 -0.011 -0.015 -0.019 -0.022 l -18.728 -18.724 c -6.895 -6.893 -18.072 -6.893 -24.967 0.001 l -148.999 149 c -6.895 6.895 -6.895 18.074 0.001 24.969 l 17.641 17.638 C 15.933 498.848 15.935 487.681 22.826 480.791 z" style="stroke: none; stroke-width: 1; stroke-dasharray: none; stroke-linecap: butt; stroke-linejoin: miter; stroke-miterlimit: 10; fill: #5B5D6E; fill-rule: nonzero; opacity: 1;" transform=" matrix(1 0 0 1 0 0) " stroke-linecap="round" />
  <path d="M 186.987 368.708 l 10.878 -10.878 c 6.895 -6.895 6.894 -18.074 -0.001 -24.969 l -18.728 -18.724 c -6.895 -6.893 -18.072 -6.893 -24.967 0.001 l -10.876 10.877 L 186.987 368.708 z" style="stroke: none; stroke-width: 1; stroke-dasharray: none; stroke-linecap: butt; stroke-linejoin: miter; stroke-miterlimit: 10; fill: #C7CFE2; fill-rule: nonzero; opacity: 1;" transform=" matrix(1 0 0 1 0 0) " stroke-linecap="round" />
  <path d="M 160.947 342.669 l 10.877 -10.877 c 6.894 -6.894 18.071 -6.895 24.967 -0.001 l 1.09 1.09 c -0.007 -0.007 -0.01 -0.014 -0.017 -0.021 l -18.728 -18.724 c -6.895 -6.893 -18.072 -6.893 -24.967 0.001 l -10.876 10.877 L 160.947 342.669 z" style="stroke: none; stroke-width: 1; stroke-dasharray: none; stroke-linecap: butt; stroke-linejoin: miter; stroke-miterlimit: 10; fill: #AFB9D2; fill-rule: nonzero; opacity: 1;" transform=" matrix(1 0 0 1 0 0) " stroke-linecap="round" />
</g>
</svg>