<?xml version="1.0" encoding="UTF-8" standalone="no" ?>
<!DOCTYPE svg PUBLIC "-//W3C//DTD SVG 1.1//EN" "http://www.w3.org/Graphics/SVG/1.1/DTD/svg11.dtd">
<svg xmlns="http://www.w3.org/2000/svg" xmlns:xlink="http://www.w3.org/1999/xlink" version="1.1" width="694.5264978599548" height="168.76999999999998" xml:space="preserve">
<desc>Created with Fabric.js 1.6.0-rc.1</desc>
<defs></defs>
  <g transform="translate(376.02 83.51) scale(1.87 1.87)">
   <text font-family="ADAMCG PRO" font-size="40" font-weight="normal" style="stroke: none; stroke-width: 1; stroke-dasharray: none; stroke-linecap: butt; stroke-linejoin: miter; stroke-miterlimit: 10; fill: #000000; fill-rule: nonzero; opacity: 1;" ><tspan x="-165.47" y="8.98" style="stroke: none; stroke-width: 0; stroke-dasharray: none; stroke-linecap: butt; stroke-linejoin: miter; stroke-miterlimit: 4; fill: #000000; fill-rule: ; opacity: 1;">O</tspan><tspan x="-131.52" y="8.98" style="stroke: none; stroke-width: 0; stroke-dasharray: none; stroke-linecap: butt; stroke-linejoin: miter; stroke-miterlimit: 4; fill: #000000; fill-rule: ; opacity: 1;">S</tspan><tspan x="-110.41" y="8.98" style="stroke: none; stroke-width: 0; stroke-dasharray: none; stroke-linecap: butt; stroke-linejoin: miter; stroke-miterlimit: 4; fill: #000000; fill-rule: ; opacity: 1;">I</tspan><tspan x="-99.62" y="8.98" style="stroke: none; stroke-width: 0; stroke-dasharray: none; stroke-linecap: butt; stroke-linejoin: miter; stroke-miterlimit: 4; fill: #000000; fill-rule: ; opacity: 1;">N</tspan><tspan x="-70.11" y="8.98" style="stroke: none; stroke-width: 0; stroke-dasharray: none; stroke-linecap: butt; stroke-linejoin: miter; stroke-miterlimit: 4; fill: #000000; fill-rule: ; opacity: 1;">T</tspan><tspan x="-46.74" y="8.98" style="stroke: none; stroke-width: 0; stroke-dasharray: none; stroke-linecap: butt; stroke-linejoin: miter; stroke-miterlimit: 4; fill: #000000; fill-rule: ; opacity: 1;"> </tspan><tspan x="-34.74" y="8.98" style="stroke: none; stroke-width: 0; stroke-dasharray: none; stroke-linecap: butt; stroke-linejoin: miter; stroke-miterlimit: 4; fill: #000000; fill-rule: ; opacity: 1;"> </tspan><tspan x="-22.74" y="8.98" style="stroke: none; stroke-width: 0; stroke-dasharray: none; stroke-linecap: butt; stroke-linejoin: miter; stroke-miterlimit: 4; fill: #000000; fill-rule: ; opacity: 1;"> </tspan><tspan x="-10.74" y="8.98" style="stroke: none; stroke-width: 0; stroke-dasharray: none; stroke-linecap: butt; stroke-linejoin: miter; stroke-miterlimit: 4; fill: #000000; fill-rule: ; opacity: 1;"> </tspan><tspan x="1.26" y="8.98" style="stroke: none; stroke-width: 0; stroke-dasharray: none; stroke-linecap: butt; stroke-linejoin: miter; stroke-miterlimit: 4; fill: #000000; fill-rule: ; opacity: 1;">W</tspan><tspan x="46.08" y="8.98" style="stroke: none; stroke-width: 0; stroke-dasharray: none; stroke-linecap: butt; stroke-linejoin: miter; stroke-miterlimit: 4; fill: #000000; fill-rule: ; opacity: 1;">I</tspan><tspan x="56.86" y="8.98" style="stroke: none; stroke-width: 0; stroke-dasharray: none; stroke-linecap: butt; stroke-linejoin: miter; stroke-miterlimit: 4; fill: #000000; fill-rule: ; opacity: 1;">Z</tspan><tspan x="85.04" y="8.98" style="stroke: none; stroke-width: 0; stroke-dasharray: none; stroke-linecap: butt; stroke-linejoin: miter; stroke-miterlimit: 4; fill: #000000; fill-rule: ; opacity: 1;">A</tspan><tspan x="112.84" y="8.98" style="stroke: none; stroke-width: 0; stroke-dasharray: none; stroke-linecap: butt; stroke-linejoin: miter; stroke-miterlimit: 4; fill: #000000; fill-rule: ; opacity: 1;">R</tspan><tspan x="138.47" y="8.98" style="stroke: none; stroke-width: 0; stroke-dasharray: none; stroke-linecap: butt; stroke-linejoin: miter; stroke-miterlimit: 4; fill: #000000; fill-rule: ; opacity: 1;">D</tspan></text>
 </g>
<g style="stroke: none; stroke-width: 1; stroke-dasharray: none; stroke-linecap: butt; stroke-linejoin: miter; stroke-miterlimit: 10; fill: none; fill-rule: nonzero; opacity: 1;" transform="translate(256 10) scale(0.29 0.29)" >
  <path d="M 372.03 111.6 v 60.75 l -58.77 -0.02 v -58.49 c 0 -14.58 -6.41 -27.79 -16.77 -37.35 S 271.82 61.02 256 61.02 c -31.63 0 -57.26 23.65 -57.26 52.82 v 133.51 h -58.77 V 111.6 C 139.97 49.97 191.92 0 256 0 S 372.03 49.97 372.03 111.6 z" style="stroke: none; stroke-width: 1; stroke-dasharray: none; stroke-linecap: butt; stroke-linejoin: miter; stroke-miterlimit: 10; fill: #C8C6CD; fill-rule: nonzero; opacity: 1;" transform=" matrix(1 0 0 1 0 0) " stroke-linecap="round" />
  <path d="M 372.03 111.6 v 60.75 l -58.77 -0.02 v -58.49 c 0 -14.58 -6.41 -27.79 -16.77 -37.35 S 271.82 61.02 256 61.02 V 0 C 320.08 0 372.03 49.97 372.03 111.6 z" style="stroke: none; stroke-width: 1; stroke-dasharray: none; stroke-linecap: butt; stroke-linejoin: miter; stroke-miterlimit: 10; fill: #AEADB3; fill-rule: nonzero; opacity: 1;" transform=" matrix(1 0 0 1 0 0) " stroke-linecap="round" />
  <path d="M 418.799 239.078 v 110.123 C 418.799 438.971 345.77 512 256 512 S 93.201 438.971 93.201 349.201 V 239.078 H 418.799 z" style="stroke: none; stroke-width: 1; stroke-dasharray: none; stroke-linecap: butt; stroke-linejoin: miter; stroke-miterlimit: 10; fill: #BD9B7B; fill-rule: nonzero; opacity: 1;" transform=" matrix(1 0 0 1 0 0) " stroke-linecap="round" />
  <path d="M 418.799 239.078 v 110.123 C 418.799 438.971 345.77 512 256 512 V 239.078 H 418.799 z" style="stroke: none; stroke-width: 1; stroke-dasharray: none; stroke-linecap: butt; stroke-linejoin: miter; stroke-miterlimit: 10; fill: #A17852; fill-rule: nonzero; opacity: 1;" transform=" matrix(1 0 0 1 0 0) " stroke-linecap="round" />
  <path d="M 277.593 376.279 l 3.88 44.452 h -50.946 l 3.88 -44.452 c -5.342 -5.449 -8.643 -12.915 -8.643 -21.147 c 0 -16.705 13.539 -30.236 30.236 -30.236 s 30.235 13.53 30.235 30.236 C 286.235 363.365 282.935 370.83 277.593 376.279 z" style="stroke: none; stroke-width: 1; stroke-dasharray: none; stroke-linecap: butt; stroke-linejoin: miter; stroke-miterlimit: 10; fill: #8A6746; fill-rule: nonzero; opacity: 1;" transform=" matrix(1 0 0 1 0 0) " stroke-linecap="round" />
  <path d="M 277.593 376.279 l 3.88 44.452 H 256 v -95.835 c 16.696 0 30.235 13.53 30.235 30.236 C 286.235 363.365 282.935 370.83 277.593 376.279 z" style="stroke: none; stroke-width: 1; stroke-dasharray: none; stroke-linecap: butt; stroke-linejoin: miter; stroke-miterlimit: 10; fill: #654B33; fill-rule: nonzero; opacity: 1;" transform=" matrix(1 0 0 1 0 0) " stroke-linecap="round" />
</g>
<g style="stroke: none; stroke-width: 1; stroke-dasharray: none; stroke-linecap: butt; stroke-linejoin: miter; stroke-miterlimit: 10; fill: none; fill-rule: nonzero; opacity: 1;" transform="translate(9.999999999999993 13.13999999999998) scale(0.24 0.24)" >
  <circle cx="254" cy="254" r="254" style="stroke: none; stroke-width: 1; stroke-dasharray: none; stroke-linecap: butt; stroke-linejoin: miter; stroke-miterlimit: 10; fill: #324A5E; fill-rule: nonzero; opacity: 1;" transform="  matrix(1 0 0 1 0 0) "/>
  <circle cx="253.9" cy="254" r="109.4" style="stroke: none; stroke-width: 1; stroke-dasharray: none; stroke-linecap: butt; stroke-linejoin: miter; stroke-miterlimit: 10; fill: #54C0EB; fill-rule: nonzero; opacity: 1;" transform="  matrix(1 0 0 1 0 0) "/>
  <path d="M 354 236.1 c -0.2 -7.2 -0.5 -14.4 -0.7 -21.6 c -0.1 -3.3 -0.5 -7.1 -3.3 -8.8 c -1.1 -0.7 -2.5 -1 -3.5 -1.8 c -1.3 -1.1 -1.6 -3 -1.9 -4.7 c -0.4 -2.7 -0.8 -5.5 -1.2 -8.2 c -10.9 -15.5 -25.8 -28 -43.2 -36.1 c -1.7 2.7 -5.3 4.2 -8.1 2.9 c 0.3 6 -6.2 9.6 -11.8 11.9 c -2.8 1.1 -5.9 2.3 -8.8 1.4 c -2.1 -0.6 -3.7 -2.1 -5.6 -3.3 c -6.4 -4.1 -15.4 -3.6 -21.4 1.1 c -2.1 1.7 -4 4.2 -3.5 6.9 c 0.4 2.7 4.3 4.5 6 2.4 c 0.7 -0.9 0.8 -2.1 1.3 -3.2 c 1.2 -2.6 4.8 -3.6 7.1 -2.1 c 1.3 3.3 -1.3 7.1 -4.6 8.4 c -3.3 1.3 -7 0.8 -10.4 0.2 c -3.5 -0.6 -7.1 -1.3 -10.5 -0.3 c -1.1 -3.1 -0.8 -6.7 0.7 -9.6 c -1.8 0.2 -3.7 0.5 -5.1 1.6 c -1.4 1.1 -2.2 3.3 -1.1 4.8 c 0.5 0.7 1.4 1.1 1.8 1.9 c 1.3 2.2 -1.6 4.4 -4 5.3 c -5.2 2 -10.3 4 -15.5 5.9 c 2.9 2.8 6.5 5 10.3 6.4 c 2.2 0.8 4.8 1.3 6.9 0.1 c 1.3 -0.7 2.2 -1.9 3.5 -2.6 c 3.7 -2 8 1.3 11.1 4.1 c 3.2 2.8 8.4 5.2 11.2 2.1 c 0.7 -0.7 1.1 -1.7 1.8 -2.5 c 3.1 -3.4 8.8 -0.4 13.2 -1.7 c 1.1 2.7 -1.9 5.4 -4.7 5.8 c -2.8 0.5 -5.8 -0.3 -8.6 0.5 c -0.5 0.1 -1 0.3 -1.3 0.8 c -0.7 1 0.2 2.3 1.1 3.1 c 2.4 2.1 5.3 3.5 8.5 4.1 c -0.5 3.7 -5.3 4.7 -9.1 4.8 c -3.9 0.1 -7.9 0.2 -11.9 0.3 c -4.5 0.1 -10.4 -0.8 -11.1 -5.3 c -0.3 -2 0.6 -4.4 -0.8 -5.9 c -0.6 -0.7 -1.6 -1 -2.5 -1.2 c -5.1 -1.4 -10.4 -2.8 -15.6 -1.7 c -3.1 0.6 -5.9 2.1 -8.6 3.6 c -7.6 4.1 -15.6 9.4 -17.8 17.7 c -2 7.5 1.5 15.3 4.8 22.3 c 1.3 2.7 2.8 5.6 5.6 6.8 c 4.4 1.8 10.2 -1.5 13.9 1.6 c 2.9 2.5 2 6.9 1.5 10.7 c -0.8 5.8 -0.3 11.8 1.6 17.3 c 0.6 1.7 1.4 3.4 2.9 4.2 c 1.1 0.5 2.3 0.5 3.4 1 c 3.5 1.5 3.5 6.4 3.3 10.2 c -0.3 5 0.1 10.1 1.2 15.1 c 0.4 2 1.1 4.2 2.8 5.4 c 1.4 1 3.2 1.1 5 1.2 c 6.6 0.3 14.4 0.1 18.1 -5.4 c 2.7 -4 2.2 -9.8 5.5 -13.4 c 1.6 -1.7 3.9 -2.7 5.5 -4.5 c 3.7 -4.3 1.5 -10.9 2.2 -16.6 c 0.7 -4.9 4 -9.4 8.5 -11.5 c 3.1 -1.4 6.5 -1.8 9.4 -3.6 c 2.8 -1.8 4.6 -6 2.4 -8.5 c -5.8 1.4 -12 -1.3 -16.3 -5.5 c -4.3 -4.2 -7 -9.7 -9.5 -15.1 c -0.8 -1.7 -1.6 -3.5 -1.5 -5.4 s 1.5 -3.8 3.4 -3.8 c 1.8 0 3.3 1.7 3.7 3.5 c 0.4 1.8 0.1 3.6 0.1 5.5 c -0.1 9 8.2 17.1 17.1 16.9 c 9 -0.2 16.9 -8.7 16.4 -17.6 c -3.2 -0.2 -6.4 -0.3 -9.7 -0.5 c -1 -0.1 -2 -0.1 -2.7 -0.7 c -1.2 -0.9 -1.2 -2.7 -1.5 -4.2 c -0.2 -1.5 -1.3 -3.3 -2.8 -3 c 9.9 -3.3 19.3 10.9 29.3 7.9 c -1.4 1.7 -0.6 4.3 0.8 6 s 3.3 3 4.3 4.9 c 0.9 1.7 0.9 3.6 1.5 5.4 c 1.3 4.3 5.1 7.2 8.8 9.9 c 1.8 -4.2 2.1 -8.9 3.3 -13.3 c 1.2 -4.4 3.7 -8.9 8 -10.5 c 6.7 -2.5 13.5 2.9 18.5 7.9 C 353.9 242.7 354.1 239.1 354 236.1 z M 281.4 214.9 l 0.6 -0.6 c -2.3 -0.4 -2.6 -3.4 -3.4 -5.6 c -1.2 -3.5 -4.8 -6.5 -3.9 -10.1 c 0.5 -2.1 2.6 -3.7 4.7 -3.6 c 0.9 0 1.8 0.4 2.3 1.1 c 0.9 1.2 0.5 2.9 0.5 4.4 c 0 2.6 1.2 5.1 1.7 7.6 C 284.4 210.7 283.8 213.9 281.4 214.9 z" style="stroke: none; stroke-width: 1; stroke-dasharray: none; stroke-linecap: butt; stroke-linejoin: miter; stroke-miterlimit: 10; fill: #FFFFFF; fill-rule: nonzero; opacity: 1;" transform=" matrix(1 0 0 1 0 0) " stroke-linecap="round" />
  <path d="M 265.9 314.4 c -3 -0.6 -5.5 -3.3 -5.8 -6.3 c -0.3 -3.1 1.6 -6.2 4.4 -7.4 c 1.6 -0.6 3.4 -0.7 4.7 -1.8 c 0.7 -0.6 1.2 -1.3 1.9 -1.9 c 0.7 -0.6 1.8 -0.9 2.5 -0.3 c 0.3 0.2 0.5 0.6 0.7 1 c 0.5 1.7 -0.1 3.5 -1.1 5 s -2.3 2.7 -3.2 4.3 c -1.5 2.5 -2 5.5 -1.3 8.4 c 0.2 1 0.6 2 0.4 3 c -0.4 1.5 -2.2 2.3 -3.7 1.8 c -1.4 -0.5 -2.3 -2.2 -2.1 -3.7 L 265.9 314.4 z" style="stroke: none; stroke-width: 1; stroke-dasharray: none; stroke-linecap: butt; stroke-linejoin: miter; stroke-miterlimit: 10; fill: #FFFFFF; fill-rule: nonzero; opacity: 1;" transform=" matrix(1 0 0 1 0 0) " stroke-linecap="round" />
  <path d="M 357.9 263.2 c -0.5 1 -1.5 1.5 -2.3 2.2 c -1.9 1.8 -1.9 4.7 -2 7.3 c 0 0.9 -0.3 2 -1.1 2.1 c -0.3 0.1 -0.7 -0.1 -1 -0.2 c -4.8 -2 -8.9 -5.7 -11.5 -10.2 c -0.7 -1.3 -1.4 -2.8 -1 -4.3 c 0.3 -1.5 2.1 -2.6 3.4 -1.9 c 1.5 0.8 2 3.7 3.7 3.3 c 1.2 -0.3 1.2 -1.9 0.8 -3.1 c -0.4 -1.1 -1 -2.4 -0.4 -3.4 c 0.8 -1.3 3 -0.7 3.8 0.6 c 0.8 1.3 0.9 2.9 1.4 4.4 c 2.4 -2.9 4.2 -6.4 5.2 -10 c 0.4 3.5 0.8 7 1.2 10.5 C 358.2 261.4 358.3 262.4 357.9 263.2 z" style="stroke: none; stroke-width: 1; stroke-dasharray: none; stroke-linecap: butt; stroke-linejoin: miter; stroke-miterlimit: 10; fill: #FFFFFF; fill-rule: nonzero; opacity: 1;" transform=" matrix(1 0 0 1 0 0) " stroke-linecap="round" />
  <path d="M 253.9 436 c -100.4 0 -182 -81.6 -182 -182 s 81.6 -182 182 -182 s 182 81.6 182 182 S 354.3 436 253.9 436 z M 253.9 86.7 c -92.2 0 -167.3 75 -167.3 167.3 c 0 92.2 75 167.3 167.3 167.3 s 167.3 -75 167.3 -167.3 C 421.2 161.8 346.1 86.7 253.9 86.7 z" style="stroke: none; stroke-width: 1; stroke-dasharray: none; stroke-linecap: butt; stroke-linejoin: miter; stroke-miterlimit: 10; fill: #E6E9EE; fill-rule: nonzero; opacity: 1;" transform=" matrix(1 0 0 1 0 0) " stroke-linecap="round" />
  <path d="M 426.4 213.1 L 426.4 213.1 c -22.6 0 -40.9 18.3 -40.9 40.9 l 0 0 c 0 22.6 18.3 40.9 40.9 40.9 l 0 0 c 22.6 0 40.9 -18.3 40.9 -40.9 l 0 0 C 467.3 231.4 448.9 213.1 426.4 213.1 z" style="stroke: none; stroke-width: 1; stroke-dasharray: none; stroke-linecap: butt; stroke-linejoin: miter; stroke-miterlimit: 10; fill: #FFFFFF; fill-rule: nonzero; opacity: 1;" transform=" matrix(1 0 0 1 0 0) " stroke-linecap="round" />
  <path d="M 426.4 228.6 L 426.4 228.6 c -14 0 -25.4 11.4 -25.4 25.4 l 0 0 c 0 14 11.4 25.4 25.4 25.4 l 0 0 c 14 0 25.4 -11.4 25.4 -25.4 l 0 0 C 451.8 240 440.4 228.6 426.4 228.6 z" style="stroke: none; stroke-width: 1; stroke-dasharray: none; stroke-linecap: butt; stroke-linejoin: miter; stroke-miterlimit: 10; fill: #FF7058; fill-rule: nonzero; opacity: 1;" transform=" matrix(1 0 0 1 0 0) " stroke-linecap="round" />
  <path d="M 79.3 213.1 L 79.3 213.1 c -22.6 0 -40.9 18.3 -40.9 40.9 l 0 0 c 0 22.6 18.3 40.9 40.9 40.9 l 0 0 c 22.6 0 40.9 -18.3 40.9 -40.9 l 0 0 C 120.2 231.4 101.9 213.1 79.3 213.1 z" style="stroke: none; stroke-width: 1; stroke-dasharray: none; stroke-linecap: butt; stroke-linejoin: miter; stroke-miterlimit: 10; fill: #FFFFFF; fill-rule: nonzero; opacity: 1;" transform=" matrix(1 0 0 1 0 0) " stroke-linecap="round" />
  <path d="M 79.3 228.6 L 79.3 228.6 c -14 0 -25.4 11.4 -25.4 25.4 l 0 0 c 0 14 11.4 25.4 25.4 25.4 l 0 0 c 14 0 25.4 -11.4 25.4 -25.4 l 0 0 C 104.7 240 93.3 228.6 79.3 228.6 z" style="stroke: none; stroke-width: 1; stroke-dasharray: none; stroke-linecap: butt; stroke-linejoin: miter; stroke-miterlimit: 10; fill: #FF7058; fill-rule: nonzero; opacity: 1;" transform=" matrix(1 0 0 1 0 0) " stroke-linecap="round" />
  <path d="M 293.7 427.5 L 293.7 427.5 c 0 -22.6 -18.3 -40.9 -40.9 -40.9 l 0 0 c -22.6 0 -40.9 18.3 -40.9 40.9 l 0 0 c 0 22.6 18.3 40.9 40.9 40.9 l 0 0 C 275.4 468.4 293.7 450.1 293.7 427.5 z" style="stroke: none; stroke-width: 1; stroke-dasharray: none; stroke-linecap: butt; stroke-linejoin: miter; stroke-miterlimit: 10; fill: #FFFFFF; fill-rule: nonzero; opacity: 1;" transform=" matrix(1 0 0 1 0 0) " stroke-linecap="round" />
  <path d="M 278.2 427.5 L 278.2 427.5 c 0 -14 -11.4 -25.4 -25.4 -25.4 l 0 0 c -14 0 -25.4 11.4 -25.4 25.4 l 0 0 c 0 14 11.4 25.4 25.4 25.4 l 0 0 C 266.8 452.9 278.2 441.6 278.2 427.5 z" style="stroke: none; stroke-width: 1; stroke-dasharray: none; stroke-linecap: butt; stroke-linejoin: miter; stroke-miterlimit: 10; fill: #FF7058; fill-rule: nonzero; opacity: 1;" transform=" matrix(1 0 0 1 0 0) " stroke-linecap="round" />
  <path d="M 293.7 80.5 L 293.7 80.5 c 0 -22.6 -18.3 -40.9 -40.9 -40.9 l 0 0 c -22.6 0 -40.9 18.3 -40.9 40.9 l 0 0 c 0 22.6 18.3 40.9 40.9 40.9 l 0 0 C 275.4 121.3 293.7 103 293.7 80.5 z" style="stroke: none; stroke-width: 1; stroke-dasharray: none; stroke-linecap: butt; stroke-linejoin: miter; stroke-miterlimit: 10; fill: #FFFFFF; fill-rule: nonzero; opacity: 1;" transform=" matrix(1 0 0 1 0 0) " stroke-linecap="round" />
  <path d="M 278.2 80.5 L 278.2 80.5 c 0 -14 -11.4 -25.4 -25.4 -25.4 l 0 0 c -14 0 -25.4 11.4 -25.4 25.4 l 0 0 c 0 14 11.4 25.4 25.4 25.4 l 0 0 C 266.8 105.8 278.2 94.5 278.2 80.5 z" style="stroke: none; stroke-width: 1; stroke-dasharray: none; stroke-linecap: butt; stroke-linejoin: miter; stroke-miterlimit: 10; fill: #FF7058; fill-rule: nonzero; opacity: 1;" transform=" matrix(1 0 0 1 0 0) " stroke-linecap="round" />
</g>
</svg>